<svg width="16" height="16" viewBox="0 0 16 16" fill="none" xmlns="http://www.w3.org/2000/svg">
<path d="M14.5046 15.586C15.165 15.586 15.7024 15.0486 15.7024 14.3882V11.5932C15.7024 10.9328 15.165 10.3954 14.5046 10.3954C13.5703 10.3954 12.652 10.2485 11.7736 9.95862C11.5636 9.89231 11.3396 9.88426 11.1254 9.93531C10.9112 9.98636 10.7149 10.0946 10.5574 10.2485L9.40749 11.3984C7.41999 10.3194 5.78769 8.68768 4.70803 6.70054L5.84836 5.55303C6.17736 5.24798 6.29555 4.78403 6.155 4.33764C5.86572 3.45788 5.71906 2.5375 5.72059 1.6114C5.72059 0.950997 5.18317 0.413574 4.52277 0.413574H1.72785C1.06745 0.413574 0.530029 0.950997 0.530029 1.6114C0.530029 9.31738 6.79863 15.586 14.5046 15.586Z" fill="white"/>
</svg>
