<svg width="41" height="40" viewBox="0 0 41 40" fill="none" xmlns="http://www.w3.org/2000/svg">
<path d="M18.0712 16.2034L18.0712 18.02L0.0520554 18.02V16.2034L18.0712 16.2034Z" fill="black"/>
<path d="M18.0712 18.02L16.2547 18.0198V0.0007267H18.0713L18.0712 18.02Z" fill="black"/>
<path d="M22.0323 23.7971L22.0323 21.9805L40.0515 21.9805V23.7971L22.0323 23.7971Z" fill="black"/>
<path d="M22.0323 21.9805L23.8488 21.9807V39.9998H22.0322L22.0323 21.9805Z" fill="black"/>
<path d="M22.0323 16.2034L22.0323 18.02L40.0515 18.02V16.2034L22.0323 16.2034Z" fill="black"/>
<path d="M22.0323 18.02L23.8488 18.0198V0.0007267H22.0322L22.0323 18.02Z" fill="black"/>
<path d="M18.0712 23.7975L18.0712 21.981L0.0520554 21.981V23.7975L18.0712 23.7975Z" fill="black"/>
<path d="M18.0712 21.981L16.2547 21.9811V40.0002H18.0713L18.0712 21.981Z" fill="black"/>
</svg>
