<svg width="41" height="40" viewBox="0 0 41 40" fill="none" xmlns="http://www.w3.org/2000/svg">
<path d="M0.0518799 1.81659L0.0518799 0L18.071 2.14875e-07V1.81659L0.0518799 1.81659Z" fill="black"/>
<path d="M0.0518799 0L1.86835 0.000181556V18.0193H0.0517578L0.0518799 0Z" fill="black"/>
<path d="M40.0516 38.1834L40.0516 40L22.0325 40V38.1834L40.0516 38.1834Z" fill="black"/>
<path d="M40.0516 40L38.2352 39.9998V21.9807H40.0518L40.0516 40Z" fill="black"/>
<path d="M40.0516 1.81659L40.0516 0L22.0325 2.14875e-07V1.81659L40.0516 1.81659Z" fill="black"/>
<path d="M40.0516 0L38.2352 0.000181556V18.0193H40.0518L40.0516 0Z" fill="black"/>
<path d="M0.0518799 38.1834L0.0518799 40L18.071 40V38.1834L0.0518799 38.1834Z" fill="black"/>
<path d="M0.0518799 40L1.86835 39.9998V21.9807H0.0517578L0.0518799 40Z" fill="black"/>
<rect x="11.2314" y="20.9082" width="1.81659" height="18.0191" transform="rotate(-90 11.2314 20.9082)" fill="black"/>
<path d="M30.4752 18.7155L31.7598 20L26.0002 25.7596L24.7157 24.475L30.4752 18.7155Z" fill="black"/>
<path d="M31.7598 20L30.4751 21.2843L24.7155 15.5248L26 14.2402L31.7598 20Z" fill="black"/>
<path d="M10.0062 18.7155L8.72168 20L14.4812 25.7596L15.7658 24.475L10.0062 18.7155Z" fill="black"/>
<path d="M8.72168 20L10.0064 21.2843L15.766 15.5248L14.4814 14.2402L8.72168 20Z" fill="black"/>
</svg>
