<svg width="41" height="40" viewBox="0 0 41 40" fill="none" xmlns="http://www.w3.org/2000/svg">
<path d="M0.0518799 1.81659L0.0518799 0L18.071 2.14875e-07V1.81659L0.0518799 1.81659Z" fill="black"/>
<path d="M0.0518799 0L1.86835 0.000181556V18.0193H0.0517578L0.0518799 0Z" fill="black"/>
<path d="M40.0516 38.1834L40.0516 40L22.0325 40V38.1834L40.0516 38.1834Z" fill="black"/>
<path d="M40.0516 40L38.2352 39.9998V21.9807H40.0518L40.0516 40Z" fill="black"/>
<path d="M40.0516 1.81659L40.0516 0L22.0325 2.14875e-07V1.81659L40.0516 1.81659Z" fill="black"/>
<path d="M40.0516 0L38.2352 0.000181556V18.0193H40.0518L40.0516 0Z" fill="black"/>
<path d="M0.0518799 38.1834L0.0518799 40L18.071 40V38.1834L0.0518799 38.1834Z" fill="black"/>
<path d="M0.0518799 40L1.86835 39.9998V21.9807H0.0517578L0.0518799 40Z" fill="black"/>
<path d="M19.1431 10.5684H20.9597V20.4539H19.1431V10.5684Z" fill="black"/>
<path d="M27.2446 19.5459H29.0612V29.4315H27.2446V19.5459Z" fill="black"/>
<path d="M11.042 21.3623L11.042 19.5457L29.0612 19.5459L29.0611 21.3623H11.042Z" fill="black"/>
</svg>
