<svg width="41" height="40" viewBox="0 0 41 40" fill="none" xmlns="http://www.w3.org/2000/svg">
<path d="M0.0518799 1.81659L0.0518799 0L18.071 2.14875e-07V1.81659L0.0518799 1.81659Z" fill="black"/>
<path d="M0.0518799 0L1.86835 0.000181556V18.0193H0.0517578L0.0518799 0Z" fill="black"/>
<path d="M40.0516 38.1834L40.0516 40L22.0325 40V38.1834L40.0516 38.1834Z" fill="black"/>
<path d="M40.0516 40L38.2352 39.9998V21.9807H40.0518L40.0516 40Z" fill="black"/>
<path d="M40.0516 1.81659L40.0516 0L22.0325 2.14875e-07V1.81659L40.0516 1.81659Z" fill="black"/>
<path d="M40.0516 0L38.2352 0.000181556V18.0193H40.0518L40.0516 0Z" fill="black"/>
<path d="M0.0518799 38.1834L0.0518799 40L18.071 40V38.1834L0.0518799 38.1834Z" fill="black"/>
<path d="M0.0518799 40L1.86835 39.9998V21.9807H0.0517578L0.0518799 40Z" fill="black"/>
<rect x="15.9941" y="15.4131" width="1.81659" height="12.0772" transform="rotate(-90 15.9941 15.4131)" fill="black"/>
<rect x="12.0322" y="15.4131" width="1.81659" height="1.74526" transform="rotate(-90 12.0322 15.4131)" fill="black"/>
<rect x="15.9941" y="21.0957" width="1.81659" height="12.0772" transform="rotate(-90 15.9941 21.0957)" fill="black"/>
<rect x="12.0322" y="21.0957" width="1.81659" height="1.74526" transform="rotate(-90 12.0322 21.0957)" fill="black"/>
<rect x="15.9941" y="26.4033" width="1.81659" height="12.0772" transform="rotate(-90 15.9941 26.4033)" fill="black"/>
<rect x="12.0322" y="26.4033" width="1.81659" height="1.74526" transform="rotate(-90 12.0322 26.4033)" fill="black"/>
</svg>
