<svg width="41" height="41" viewBox="0 0 41 41" fill="none" xmlns="http://www.w3.org/2000/svg">
<path d="M0.0518799 2.56561L0.0518799 0.749023L18.071 0.749024V2.56561L0.0518799 2.56561Z" fill="black"/>
<path d="M0.0518799 0.749023L1.86835 0.749205V18.7683H0.0517578L0.0518799 0.749023Z" fill="black"/>
<path d="M40.0516 38.9324L40.0516 40.749L22.0325 40.749V38.9324L40.0516 38.9324Z" fill="black"/>
<path d="M40.0516 40.749L38.2352 40.7488V22.7297H40.0518L40.0516 40.749Z" fill="black"/>
<path fill-rule="evenodd" clip-rule="evenodd" d="M38.5522 2.24854H23.5322V17.2685H38.5522V2.24854ZM22.0322 0.748535V18.7685H40.0522V0.748535H22.0322Z" fill="black"/>
<path d="M0.0518799 38.9324L0.0518799 40.749L18.071 40.749V38.9324L0.0518799 38.9324Z" fill="black"/>
<path d="M0.0518799 40.749L1.86835 40.7488V22.7297H0.0517578L0.0518799 40.749Z" fill="black"/>
</svg>
