<svg width="286" height="144" viewBox="0 0 286 144" fill="none" xmlns="http://www.w3.org/2000/svg">
<g opacity="0.8">
<path d="M41.589 76V59.67H43.199V76H41.589ZM48.9041 62.66V76H47.2941V59.67H48.5361L59.3461 73.263V59.693H60.9561V76H59.5531L48.9041 62.66ZM74.6057 62.729C74.1457 62.2077 73.5323 61.786 72.7657 61.464C71.999 61.142 71.125 60.981 70.1437 60.981C68.7023 60.981 67.652 61.257 66.9927 61.809C66.3333 62.3457 66.0037 63.0817 66.0037 64.017C66.0037 64.5077 66.088 64.914 66.2567 65.236C66.4407 65.5427 66.7167 65.811 67.0847 66.041C67.4527 66.271 67.9203 66.4703 68.4877 66.639C69.0703 66.8077 69.7527 66.9763 70.5347 67.145C71.4087 67.329 72.1907 67.536 72.8807 67.766C73.586 67.996 74.184 68.2873 74.6747 68.64C75.1653 68.9773 75.541 69.3913 75.8017 69.882C76.0623 70.3727 76.1927 70.986 76.1927 71.722C76.1927 72.4733 76.047 73.125 75.7557 73.677C75.4643 74.229 75.058 74.689 74.5367 75.057C74.0153 75.425 73.3943 75.701 72.6737 75.885C71.953 76.0537 71.1633 76.138 70.3047 76.138C67.7747 76.138 65.5897 75.3483 63.7497 73.769L64.5547 72.458C64.846 72.7647 65.191 73.056 65.5897 73.332C66.0037 73.608 66.456 73.8533 66.9467 74.068C67.4527 74.2673 67.9893 74.4283 68.5567 74.551C69.124 74.6583 69.722 74.712 70.3507 74.712C71.654 74.712 72.666 74.482 73.3867 74.022C74.1227 73.5467 74.4907 72.8337 74.4907 71.883C74.4907 71.377 74.3833 70.9553 74.1687 70.618C73.9693 70.2653 73.6627 69.9663 73.2487 69.721C72.8347 69.4603 72.321 69.238 71.7077 69.054C71.0943 68.87 70.3813 68.686 69.5687 68.502C68.71 68.3027 67.9587 68.0957 67.3147 67.881C66.6707 67.6663 66.1263 67.398 65.6817 67.076C65.237 66.754 64.8997 66.3707 64.6697 65.926C64.455 65.466 64.3477 64.9063 64.3477 64.247C64.3477 63.4957 64.4857 62.8287 64.7617 62.246C65.053 61.648 65.4593 61.1573 65.9807 60.774C66.502 60.3753 67.1153 60.0763 67.8207 59.877C68.526 59.6623 69.308 59.555 70.1667 59.555C71.2553 59.555 72.2213 59.7237 73.0647 60.061C73.9233 60.383 74.6977 60.843 75.3877 61.441L74.6057 62.729ZM77.9504 67.72C77.9504 66.7387 78.119 65.765 78.4564 64.799C78.809 63.8177 79.315 62.9437 79.9744 62.177C80.6337 61.4103 81.4464 60.7893 82.4124 60.314C83.3784 59.8233 84.4747 59.578 85.7014 59.578C87.158 59.578 88.4 59.9077 89.4274 60.567C90.47 61.2263 91.2367 62.085 91.7274 63.143L90.4624 63.925C90.2017 63.3883 89.8797 62.936 89.4964 62.568C89.1284 62.2 88.7297 61.901 88.3004 61.671C87.871 61.441 87.4264 61.28 86.9664 61.188C86.5064 61.0807 86.054 61.027 85.6094 61.027C84.628 61.027 83.7617 61.2263 83.0104 61.625C82.259 62.0237 81.6227 62.545 81.1014 63.189C80.5954 63.833 80.212 64.5613 79.9514 65.374C79.6907 66.1713 79.5604 66.984 79.5604 67.812C79.5604 68.7167 79.7137 69.583 80.0204 70.411C80.3424 71.239 80.7717 71.975 81.3084 72.619C81.8604 73.2477 82.5044 73.7537 83.2404 74.137C83.9917 74.505 84.8044 74.689 85.6784 74.689C86.1384 74.689 86.606 74.6353 87.0814 74.528C87.572 74.4053 88.0397 74.2213 88.4844 73.976C88.9444 73.7153 89.366 73.401 89.7494 73.033C90.1327 72.6497 90.4547 72.1897 90.7154 71.653L92.0494 72.343C91.7887 72.9563 91.4207 73.5007 90.9454 73.976C90.47 74.436 89.941 74.827 89.3584 75.149C88.7757 75.471 88.1547 75.7163 87.4954 75.885C86.8514 76.0537 86.215 76.138 85.5864 76.138C84.467 76.138 83.4397 75.8927 82.5044 75.402C81.569 74.9113 80.764 74.275 80.0894 73.493C79.4147 72.6957 78.8857 71.7987 78.5024 70.802C78.1344 69.79 77.9504 68.7627 77.9504 67.72ZM101.22 76.115C100.085 76.115 99.0424 75.885 98.0917 75.425C97.1564 74.9497 96.3514 74.3287 95.6767 73.562C95.0021 72.78 94.4807 71.8907 94.1127 70.894C93.7447 69.8973 93.5607 68.8777 93.5607 67.835C93.5607 66.7463 93.7524 65.7037 94.1357 64.707C94.5344 63.7103 95.0787 62.8287 95.7687 62.062C96.4587 61.2953 97.2714 60.6897 98.2067 60.245C99.1421 59.785 100.154 59.555 101.243 59.555C102.377 59.555 103.412 59.8003 104.348 60.291C105.298 60.7663 106.103 61.395 106.763 62.177C107.437 62.959 107.959 63.8483 108.327 64.845C108.695 65.8263 108.879 66.8307 108.879 67.858C108.879 68.9467 108.679 69.9893 108.281 70.986C107.897 71.9827 107.361 72.8643 106.671 73.631C105.996 74.3823 105.191 74.988 104.256 75.448C103.32 75.8927 102.308 76.115 101.22 76.115ZM95.1707 67.835C95.1707 68.7243 95.3164 69.583 95.6077 70.411C95.8991 71.2237 96.3131 71.952 96.8497 72.596C97.3864 73.2247 98.0227 73.7307 98.7587 74.114C99.4947 74.482 100.315 74.666 101.22 74.666C102.14 74.666 102.975 74.4667 103.727 74.068C104.478 73.6693 105.114 73.148 105.636 72.504C106.157 71.86 106.556 71.1317 106.832 70.319C107.123 69.5063 107.269 68.6783 107.269 67.835C107.269 66.9457 107.115 66.0947 106.809 65.282C106.517 64.454 106.103 63.7257 105.567 63.097C105.03 62.4683 104.394 61.97 103.658 61.602C102.922 61.2187 102.109 61.027 101.22 61.027C100.3 61.027 99.4641 61.2263 98.7127 61.625C97.9614 62.0083 97.3251 62.522 96.8037 63.166C96.2824 63.81 95.8761 64.5383 95.5847 65.351C95.3087 66.1637 95.1707 66.9917 95.1707 67.835ZM113.524 62.66V76H111.914V59.67H113.156L123.966 73.263V59.693H125.576V76H124.173L113.524 62.66ZM141.273 61.096H135.454V76H133.844V61.096H128.025V59.67H141.273V61.096ZM143.719 76V59.67H150.619C151.324 59.67 151.968 59.8233 152.551 60.13C153.149 60.4213 153.663 60.8123 154.092 61.303C154.521 61.7783 154.851 62.3227 155.081 62.936C155.326 63.5493 155.449 64.1703 155.449 64.799C155.449 65.397 155.357 65.972 155.173 66.524C155.004 67.0607 154.759 67.5513 154.437 67.996C154.13 68.4253 153.755 68.7933 153.31 69.1C152.865 69.3913 152.367 69.5907 151.815 69.698L155.817 76H154L150.159 69.974H145.329V76H143.719ZM145.329 68.548H150.665C151.14 68.548 151.57 68.4483 151.953 68.249C152.352 68.0343 152.689 67.7507 152.965 67.398C153.241 67.0453 153.456 66.6467 153.609 66.202C153.762 65.7573 153.839 65.2897 153.839 64.799C153.839 64.3083 153.747 63.8407 153.563 63.396C153.394 62.936 153.157 62.5373 152.85 62.2C152.559 61.8627 152.206 61.5943 151.792 61.395C151.393 61.1957 150.972 61.096 150.527 61.096H145.329V68.548ZM163.558 59.67H164.915L171.7 76H169.998L167.882 70.894H160.545L158.452 76H156.727L163.558 59.67ZM167.514 69.629L164.225 61.556L160.89 69.629H167.514ZM172.354 67.72C172.354 66.7387 172.522 65.765 172.86 64.799C173.212 63.8177 173.718 62.9437 174.378 62.177C175.037 61.4103 175.85 60.7893 176.816 60.314C177.782 59.8233 178.878 59.578 180.105 59.578C181.561 59.578 182.803 59.9077 183.831 60.567C184.873 61.2263 185.64 62.085 186.131 63.143L184.866 63.925C184.605 63.3883 184.283 62.936 183.9 62.568C183.532 62.2 183.133 61.901 182.704 61.671C182.274 61.441 181.83 61.28 181.37 61.188C180.91 61.0807 180.457 61.027 180.013 61.027C179.031 61.027 178.165 61.2263 177.414 61.625C176.662 62.0237 176.026 62.545 175.505 63.189C174.999 63.833 174.615 64.5613 174.355 65.374C174.094 66.1713 173.964 66.984 173.964 67.812C173.964 68.7167 174.117 69.583 174.424 70.411C174.746 71.239 175.175 71.975 175.712 72.619C176.264 73.2477 176.908 73.7537 177.644 74.137C178.395 74.505 179.208 74.689 180.082 74.689C180.542 74.689 181.009 74.6353 181.485 74.528C181.975 74.4053 182.443 74.2213 182.888 73.976C183.348 73.7153 183.769 73.401 184.153 73.033C184.536 72.6497 184.858 72.1897 185.119 71.653L186.453 72.343C186.192 72.9563 185.824 73.5007 185.349 73.976C184.873 74.436 184.344 74.827 183.762 75.149C183.179 75.471 182.558 75.7163 181.899 75.885C181.255 76.0537 180.618 76.138 179.99 76.138C178.87 76.138 177.843 75.8927 176.908 75.402C175.972 74.9113 175.167 74.275 174.493 73.493C173.818 72.6957 173.289 71.7987 172.906 70.802C172.538 69.79 172.354 68.7627 172.354 67.72ZM200.637 61.096H194.818V76H193.208V61.096H187.389V59.67H200.637V61.096ZM208.897 76.115C207.763 76.115 206.72 75.885 205.769 75.425C204.834 74.9497 204.029 74.3287 203.354 73.562C202.68 72.78 202.158 71.8907 201.79 70.894C201.422 69.8973 201.238 68.8777 201.238 67.835C201.238 66.7463 201.43 65.7037 201.813 64.707C202.212 63.7103 202.756 62.8287 203.446 62.062C204.136 61.2953 204.949 60.6897 205.884 60.245C206.82 59.785 207.832 59.555 208.92 59.555C210.055 59.555 211.09 59.8003 212.025 60.291C212.976 60.7663 213.781 61.395 214.44 62.177C215.115 62.959 215.636 63.8483 216.004 64.845C216.372 65.8263 216.556 66.8307 216.556 67.858C216.556 68.9467 216.357 69.9893 215.958 70.986C215.575 71.9827 215.038 72.8643 214.348 73.631C213.674 74.3823 212.869 74.988 211.933 75.448C210.998 75.8927 209.986 76.115 208.897 76.115ZM202.848 67.835C202.848 68.7243 202.994 69.583 203.285 70.411C203.577 71.2237 203.991 71.952 204.527 72.596C205.064 73.2247 205.7 73.7307 206.436 74.114C207.172 74.482 207.993 74.666 208.897 74.666C209.817 74.666 210.653 74.4667 211.404 74.068C212.156 73.6693 212.792 73.148 213.313 72.504C213.835 71.86 214.233 71.1317 214.509 70.319C214.801 69.5063 214.946 68.6783 214.946 67.835C214.946 66.9457 214.793 66.0947 214.486 65.282C214.195 64.454 213.781 63.7257 213.244 63.097C212.708 62.4683 212.071 61.97 211.335 61.602C210.599 61.2187 209.787 61.027 208.897 61.027C207.977 61.027 207.142 61.2263 206.39 61.625C205.639 62.0083 205.003 62.522 204.481 63.166C203.96 63.81 203.554 64.5383 203.262 65.351C202.986 66.1637 202.848 66.9917 202.848 67.835ZM219.592 76V59.67H226.492C227.197 59.67 227.841 59.8233 228.424 60.13C229.022 60.4213 229.536 60.8123 229.965 61.303C230.394 61.7783 230.724 62.3227 230.954 62.936C231.199 63.5493 231.322 64.1703 231.322 64.799C231.322 65.397 231.23 65.972 231.046 66.524C230.877 67.0607 230.632 67.5513 230.31 67.996C230.003 68.4253 229.628 68.7933 229.183 69.1C228.738 69.3913 228.24 69.5907 227.688 69.698L231.69 76H229.873L226.032 69.974H221.202V76H219.592ZM221.202 68.548H226.538C227.013 68.548 227.443 68.4483 227.826 68.249C228.225 68.0343 228.562 67.7507 228.838 67.398C229.114 67.0453 229.329 66.6467 229.482 66.202C229.635 65.7573 229.712 65.2897 229.712 64.799C229.712 64.3083 229.62 63.8407 229.436 63.396C229.267 62.936 229.03 62.5373 228.723 62.2C228.432 61.8627 228.079 61.5943 227.665 61.395C227.266 61.1957 226.845 61.096 226.4 61.096H221.202V68.548ZM244.163 62.729C243.703 62.2077 243.09 61.786 242.323 61.464C241.557 61.142 240.683 60.981 239.701 60.981C238.26 60.981 237.21 61.257 236.55 61.809C235.891 62.3457 235.561 63.0817 235.561 64.017C235.561 64.5077 235.646 64.914 235.814 65.236C235.998 65.5427 236.274 65.811 236.642 66.041C237.01 66.271 237.478 66.4703 238.045 66.639C238.628 66.8077 239.31 66.9763 240.092 67.145C240.966 67.329 241.748 67.536 242.438 67.766C243.144 67.996 243.742 68.2873 244.232 68.64C244.723 68.9773 245.099 69.3913 245.359 69.882C245.62 70.3727 245.75 70.986 245.75 71.722C245.75 72.4733 245.605 73.125 245.313 73.677C245.022 74.229 244.616 74.689 244.094 75.057C243.573 75.425 242.952 75.701 242.231 75.885C241.511 76.0537 240.721 76.138 239.862 76.138C237.332 76.138 235.147 75.3483 233.307 73.769L234.112 72.458C234.404 72.7647 234.749 73.056 235.147 73.332C235.561 73.608 236.014 73.8533 236.504 74.068C237.01 74.2673 237.547 74.4283 238.114 74.551C238.682 74.6583 239.28 74.712 239.908 74.712C241.212 74.712 242.224 74.482 242.944 74.022C243.68 73.5467 244.048 72.8337 244.048 71.883C244.048 71.377 243.941 70.9553 243.726 70.618C243.527 70.2653 243.22 69.9663 242.806 69.721C242.392 69.4603 241.879 69.238 241.265 69.054C240.652 68.87 239.939 68.686 239.126 68.502C238.268 68.3027 237.516 68.0957 236.872 67.881C236.228 67.6663 235.684 67.398 235.239 67.076C234.795 66.754 234.457 66.3707 234.227 65.926C234.013 65.466 233.905 64.9063 233.905 64.247C233.905 63.4957 234.043 62.8287 234.319 62.246C234.611 61.648 235.017 61.1573 235.538 60.774C236.06 60.3753 236.673 60.0763 237.378 59.877C238.084 59.6623 238.866 59.555 239.724 59.555C240.813 59.555 241.779 59.7237 242.622 60.061C243.481 60.383 244.255 60.843 244.945 61.441L244.163 62.729Z" fill="black"/>
<path d="M43.756 85.1167C43.294 85.6254 42.762 85.8797 42.16 85.8797C41.824 85.8797 41.5137 85.8074 41.229 85.6627C40.949 85.5181 40.704 85.3267 40.494 85.0887C40.2887 84.8507 40.1277 84.5824 40.011 84.2837C39.8943 83.9804 39.836 83.6701 39.836 83.3527C39.836 83.0214 39.892 82.7041 40.004 82.4007C40.1207 82.0974 40.2817 81.8314 40.487 81.6027C40.6923 81.3694 40.935 81.1851 41.215 81.0497C41.495 80.9097 41.8007 80.8397 42.132 80.8397C42.3747 80.8397 42.5963 80.8677 42.797 80.9237C42.9977 80.9751 43.175 81.0497 43.329 81.1477C43.4877 81.2411 43.623 81.3554 43.735 81.4907C43.8517 81.6214 43.9497 81.7661 44.029 81.9247L43.651 82.1767C43.4877 81.8687 43.2753 81.6424 43.014 81.4977C42.7527 81.3531 42.4563 81.2807 42.125 81.2807C41.8497 81.2807 41.6 81.3391 41.376 81.4557C41.1567 81.5724 40.9677 81.7287 40.809 81.9247C40.655 82.1161 40.536 82.3377 40.452 82.5897C40.368 82.8371 40.326 83.0937 40.326 83.3597C40.326 83.6397 40.3727 83.9057 40.466 84.1577C40.564 84.4097 40.697 84.6314 40.865 84.8227C41.033 85.0094 41.229 85.1587 41.453 85.2707C41.6817 85.3827 41.929 85.4387 42.195 85.4387C42.4797 85.4387 42.7503 85.3734 43.007 85.2427C43.2683 85.1074 43.518 84.8951 43.756 84.6057V83.7797H42.65V83.4017H44.169V85.8447H43.756V85.1167ZM48.5147 85.4107V85.8447H45.1757V80.8747H48.4517V81.3087H45.6657V83.1007H48.0947V83.5137H45.6657V85.4107H48.5147ZM49.9314 81.7847V85.8447H49.4414V80.8747H49.8194L53.1094 85.0117V80.8817H53.5994V85.8447H53.1724L49.9314 81.7847ZM58.1876 85.4107V85.8447H54.8486V80.8747H58.1246V81.3087H55.3386V83.1007H57.7676V83.5137H55.3386V85.4107H58.1876ZM59.1142 85.8447V80.8747H61.2142C61.4289 80.8747 61.6249 80.9214 61.8022 81.0147C61.9842 81.1034 62.1405 81.2224 62.2712 81.3717C62.4019 81.5164 62.5022 81.6821 62.5722 81.8687C62.6469 82.0554 62.6842 82.2444 62.6842 82.4357C62.6842 82.6177 62.6562 82.7927 62.6002 82.9607C62.5489 83.1241 62.4742 83.2734 62.3762 83.4087C62.2829 83.5394 62.1685 83.6514 62.0332 83.7447C61.8979 83.8334 61.7462 83.8941 61.5782 83.9267L62.7962 85.8447H62.2432L61.0742 84.0107H59.6042V85.8447H59.1142ZM59.6042 83.5767H61.2282C61.3729 83.5767 61.5035 83.5464 61.6202 83.4857C61.7415 83.4204 61.8442 83.3341 61.9282 83.2267C62.0122 83.1194 62.0775 82.9981 62.1242 82.8627C62.1709 82.7274 62.1942 82.5851 62.1942 82.4357C62.1942 82.2864 62.1662 82.1441 62.1102 82.0087C62.0589 81.8687 61.9865 81.7474 61.8932 81.6447C61.8045 81.5421 61.6972 81.4604 61.5712 81.3997C61.4499 81.3391 61.3215 81.3087 61.1862 81.3087H59.6042V83.5767ZM65.1523 80.8747H65.5653L67.6303 85.8447H67.1123L66.4683 84.2907H64.2353L63.5983 85.8447H63.0733L65.1523 80.8747ZM66.3563 83.9057L65.3553 81.4487L64.3403 83.9057H66.3563ZM68.3427 85.8447V80.8747H68.8327V85.4107H71.7027V85.8447H68.3427ZM73.6876 83.3247C73.6876 83.0261 73.7389 82.7297 73.8416 82.4357C73.9489 82.1371 74.1029 81.8711 74.3036 81.6377C74.5042 81.4044 74.7516 81.2154 75.0456 81.0707C75.3396 80.9214 75.6732 80.8467 76.0466 80.8467C76.4899 80.8467 76.8679 80.9471 77.1806 81.1477C77.4979 81.3484 77.7312 81.6097 77.8806 81.9317L77.4956 82.1697C77.4162 82.0064 77.3182 81.8687 77.2016 81.7567C77.0896 81.6447 76.9682 81.5537 76.8376 81.4837C76.7069 81.4137 76.5716 81.3647 76.4316 81.3367C76.2916 81.3041 76.1539 81.2877 76.0186 81.2877C75.7199 81.2877 75.4562 81.3484 75.2276 81.4697C74.9989 81.5911 74.8052 81.7497 74.6466 81.9457C74.4926 82.1417 74.3759 82.3634 74.2966 82.6107C74.2172 82.8534 74.1776 83.1007 74.1776 83.3527C74.1776 83.6281 74.2242 83.8917 74.3176 84.1437C74.4156 84.3957 74.5462 84.6197 74.7096 84.8157C74.8776 85.0071 75.0736 85.1611 75.2976 85.2777C75.5262 85.3897 75.7736 85.4457 76.0396 85.4457C76.1796 85.4457 76.3219 85.4294 76.4666 85.3967C76.6159 85.3594 76.7582 85.3034 76.8936 85.2287C77.0336 85.1494 77.1619 85.0537 77.2786 84.9417C77.3952 84.8251 77.4932 84.6851 77.5726 84.5217L77.9786 84.7317C77.8992 84.9184 77.7872 85.0841 77.6426 85.2287C77.4979 85.3687 77.3369 85.4877 77.1596 85.5857C76.9822 85.6837 76.7932 85.7584 76.5926 85.8097C76.3966 85.8611 76.2029 85.8867 76.0116 85.8867C75.6709 85.8867 75.3582 85.8121 75.0736 85.6627C74.7889 85.5134 74.5439 85.3197 74.3386 85.0817C74.1332 84.8391 73.9722 84.5661 73.8556 84.2627C73.7436 83.9547 73.6876 83.6421 73.6876 83.3247ZM80.7695 85.8797C80.4242 85.8797 80.1069 85.8097 79.8175 85.6697C79.5329 85.5251 79.2879 85.3361 79.0825 85.1027C78.8772 84.8647 78.7185 84.5941 78.6065 84.2907C78.4945 83.9874 78.4385 83.6771 78.4385 83.3597C78.4385 83.0284 78.4969 82.7111 78.6135 82.4077C78.7349 82.1044 78.9005 81.8361 79.1105 81.6027C79.3205 81.3694 79.5679 81.1851 79.8525 81.0497C80.1372 80.9097 80.4452 80.8397 80.7765 80.8397C81.1219 80.8397 81.4369 80.9144 81.7215 81.0637C82.0109 81.2084 82.2559 81.3997 82.4565 81.6377C82.6619 81.8757 82.8205 82.1464 82.9325 82.4497C83.0445 82.7484 83.1005 83.0541 83.1005 83.3667C83.1005 83.6981 83.0399 84.0154 82.9185 84.3187C82.8019 84.6221 82.6385 84.8904 82.4285 85.1237C82.2232 85.3524 81.9782 85.5367 81.6935 85.6767C81.4089 85.8121 81.1009 85.8797 80.7695 85.8797ZM78.9285 83.3597C78.9285 83.6304 78.9729 83.8917 79.0615 84.1437C79.1502 84.3911 79.2762 84.6127 79.4395 84.8087C79.6029 85.0001 79.7965 85.1541 80.0205 85.2707C80.2445 85.3827 80.4942 85.4387 80.7695 85.4387C81.0495 85.4387 81.3039 85.3781 81.5325 85.2567C81.7612 85.1354 81.9549 84.9767 82.1135 84.7807C82.2722 84.5847 82.3935 84.3631 82.4775 84.1157C82.5662 83.8684 82.6105 83.6164 82.6105 83.3597C82.6105 83.0891 82.5639 82.8301 82.4705 82.5827C82.3819 82.3307 82.2559 82.1091 82.0925 81.9177C81.9292 81.7264 81.7355 81.5747 81.5115 81.4627C81.2875 81.3461 81.0402 81.2877 80.7695 81.2877C80.4895 81.2877 80.2352 81.3484 80.0065 81.4697C79.7779 81.5864 79.5842 81.7427 79.4255 81.9387C79.2669 82.1347 79.1432 82.3564 79.0545 82.6037C78.9705 82.8511 78.9285 83.1031 78.9285 83.3597ZM84.5144 81.7847V85.8447H84.0244V80.8747H84.4024L87.6924 85.0117V80.8817H88.1824V85.8447H87.7554L84.5144 81.7847ZM92.9596 81.3087H91.1886V85.8447H90.6986V81.3087H88.9276V80.8747H92.9596V81.3087ZM93.7041 85.8447V80.8747H95.8041C96.0187 80.8747 96.2147 80.9214 96.3921 81.0147C96.5741 81.1034 96.7304 81.2224 96.8611 81.3717C96.9917 81.5164 97.0921 81.6821 97.1621 81.8687C97.2367 82.0554 97.2741 82.2444 97.2741 82.4357C97.2741 82.6177 97.2461 82.7927 97.1901 82.9607C97.1387 83.1241 97.0641 83.2734 96.9661 83.4087C96.8727 83.5394 96.7584 83.6514 96.6231 83.7447C96.4877 83.8334 96.3361 83.8941 96.1681 83.9267L97.3861 85.8447H96.8331L95.6641 84.0107H94.1941V85.8447H93.7041ZM94.1941 83.5767H95.8181C95.9627 83.5767 96.0934 83.5464 96.2101 83.4857C96.3314 83.4204 96.4341 83.3341 96.5181 83.2267C96.6021 83.1194 96.6674 82.9981 96.7141 82.8627C96.7607 82.7274 96.7841 82.5851 96.7841 82.4357C96.7841 82.2864 96.7561 82.1441 96.7001 82.0087C96.6487 81.8687 96.5764 81.7474 96.4831 81.6447C96.3944 81.5421 96.2871 81.4604 96.1611 81.3997C96.0397 81.3391 95.9114 81.3087 95.7761 81.3087H94.1941V83.5767ZM99.7421 80.8747H100.155L102.22 85.8447H101.702L101.058 84.2907H98.8251L98.1881 85.8447H97.6631L99.7421 80.8747ZM100.946 83.9057L99.9451 81.4487L98.9301 83.9057H100.946ZM102.419 83.3247C102.419 83.0261 102.47 82.7297 102.573 82.4357C102.68 82.1371 102.834 81.8711 103.035 81.6377C103.236 81.4044 103.483 81.2154 103.777 81.0707C104.071 80.9214 104.405 80.8467 104.778 80.8467C105.221 80.8467 105.599 80.9471 105.912 81.1477C106.229 81.3484 106.463 81.6097 106.612 81.9317L106.227 82.1697C106.148 82.0064 106.05 81.8687 105.933 81.7567C105.821 81.6447 105.7 81.5537 105.569 81.4837C105.438 81.4137 105.303 81.3647 105.163 81.3367C105.023 81.3041 104.885 81.2877 104.75 81.2877C104.451 81.2877 104.188 81.3484 103.959 81.4697C103.73 81.5911 103.537 81.7497 103.378 81.9457C103.224 82.1417 103.107 82.3634 103.028 82.6107C102.949 82.8534 102.909 83.1007 102.909 83.3527C102.909 83.6281 102.956 83.8917 103.049 84.1437C103.147 84.3957 103.278 84.6197 103.441 84.8157C103.609 85.0071 103.805 85.1611 104.029 85.2777C104.258 85.3897 104.505 85.4457 104.771 85.4457C104.911 85.4457 105.053 85.4294 105.198 85.3967C105.347 85.3594 105.49 85.3034 105.625 85.2287C105.765 85.1494 105.893 85.0537 106.01 84.9417C106.127 84.8251 106.225 84.6851 106.304 84.5217L106.71 84.7317C106.631 84.9184 106.519 85.0841 106.374 85.2287C106.229 85.3687 106.068 85.4877 105.891 85.5857C105.714 85.6837 105.525 85.7584 105.324 85.8097C105.128 85.8611 104.934 85.8867 104.743 85.8867C104.402 85.8867 104.09 85.8121 103.805 85.6627C103.52 85.5134 103.275 85.3197 103.07 85.0817C102.865 84.8391 102.704 84.5661 102.587 84.2627C102.475 83.9547 102.419 83.6421 102.419 83.3247ZM111.027 81.3087H109.256V85.8447H108.766V81.3087H106.995V80.8747H111.027V81.3087ZM111.771 85.8447V80.8747H112.261V85.8447H111.771ZM113.998 81.7847V85.8447H113.508V80.8747H113.886L117.176 85.0117V80.8817H117.666V85.8447H117.239L113.998 81.7847ZM122.506 85.1167C122.044 85.6254 121.512 85.8797 120.91 85.8797C120.574 85.8797 120.264 85.8074 119.979 85.6627C119.699 85.5181 119.454 85.3267 119.244 85.0887C119.039 84.8507 118.878 84.5824 118.761 84.2837C118.644 83.9804 118.586 83.6701 118.586 83.3527C118.586 83.0214 118.642 82.7041 118.754 82.4007C118.871 82.0974 119.032 81.8314 119.237 81.6027C119.442 81.3694 119.685 81.1851 119.965 81.0497C120.245 80.9097 120.551 80.8397 120.882 80.8397C121.125 80.8397 121.346 80.8677 121.547 80.9237C121.748 80.9751 121.925 81.0497 122.079 81.1477C122.238 81.2411 122.373 81.3554 122.485 81.4907C122.602 81.6214 122.7 81.7661 122.779 81.9247L122.401 82.1767C122.238 81.8687 122.025 81.6424 121.764 81.4977C121.503 81.3531 121.206 81.2807 120.875 81.2807C120.6 81.2807 120.35 81.3391 120.126 81.4557C119.907 81.5724 119.718 81.7287 119.559 81.9247C119.405 82.1161 119.286 82.3377 119.202 82.5897C119.118 82.8371 119.076 83.0937 119.076 83.3597C119.076 83.6397 119.123 83.9057 119.216 84.1577C119.314 84.4097 119.447 84.6314 119.615 84.8227C119.783 85.0094 119.979 85.1587 120.203 85.2707C120.432 85.3827 120.679 85.4387 120.945 85.4387C121.23 85.4387 121.5 85.3734 121.757 85.2427C122.018 85.1074 122.268 84.8951 122.506 84.6057V83.7797H121.4V83.4017H122.919V85.8447H122.506V85.1167ZM128.949 83.3247C128.949 83.0261 129.001 82.7297 129.103 82.4357C129.211 82.1371 129.365 81.8711 129.565 81.6377C129.766 81.4044 130.013 81.2154 130.307 81.0707C130.601 80.9214 130.935 80.8467 131.308 80.8467C131.752 80.8467 132.13 80.9471 132.442 81.1477C132.76 81.3484 132.993 81.6097 133.142 81.9317L132.757 82.1697C132.678 82.0064 132.58 81.8687 132.463 81.7567C132.351 81.6447 132.23 81.5537 132.099 81.4837C131.969 81.4137 131.833 81.3647 131.693 81.3367C131.553 81.3041 131.416 81.2877 131.28 81.2877C130.982 81.2877 130.718 81.3484 130.489 81.4697C130.261 81.5911 130.067 81.7497 129.908 81.9457C129.754 82.1417 129.638 82.3634 129.558 82.6107C129.479 82.8534 129.439 83.1007 129.439 83.3527C129.439 83.6281 129.486 83.8917 129.579 84.1437C129.677 84.3957 129.808 84.6197 129.971 84.8157C130.139 85.0071 130.335 85.1611 130.559 85.2777C130.788 85.3897 131.035 85.4457 131.301 85.4457C131.441 85.4457 131.584 85.4294 131.728 85.3967C131.878 85.3594 132.02 85.3034 132.155 85.2287C132.295 85.1494 132.424 85.0537 132.54 84.9417C132.657 84.8251 132.755 84.6851 132.834 84.5217L133.24 84.7317C133.161 84.9184 133.049 85.0841 132.904 85.2287C132.76 85.3687 132.599 85.4877 132.421 85.5857C132.244 85.6837 132.055 85.7584 131.854 85.8097C131.658 85.8611 131.465 85.8867 131.273 85.8867C130.933 85.8867 130.62 85.8121 130.335 85.6627C130.051 85.5134 129.806 85.3197 129.6 85.0817C129.395 84.8391 129.234 84.5661 129.117 84.2627C129.005 83.9547 128.949 83.6421 128.949 83.3247ZM136.031 85.8797C135.686 85.8797 135.369 85.8097 135.079 85.6697C134.795 85.5251 134.55 85.3361 134.344 85.1027C134.139 84.8647 133.98 84.5941 133.868 84.2907C133.756 83.9874 133.7 83.6771 133.7 83.3597C133.7 83.0284 133.759 82.7111 133.875 82.4077C133.997 82.1044 134.162 81.8361 134.372 81.6027C134.582 81.3694 134.83 81.1851 135.114 81.0497C135.399 80.9097 135.707 80.8397 136.038 80.8397C136.384 80.8397 136.699 80.9144 136.983 81.0637C137.273 81.2084 137.518 81.3997 137.718 81.6377C137.924 81.8757 138.082 82.1464 138.194 82.4497C138.306 82.7484 138.362 83.0541 138.362 83.3667C138.362 83.6981 138.302 84.0154 138.18 84.3187C138.064 84.6221 137.9 84.8904 137.69 85.1237C137.485 85.3524 137.24 85.5367 136.955 85.6767C136.671 85.8121 136.363 85.8797 136.031 85.8797ZM134.19 83.3597C134.19 83.6304 134.235 83.8917 134.323 84.1437C134.412 84.3911 134.538 84.6127 134.701 84.8087C134.865 85.0001 135.058 85.1541 135.282 85.2707C135.506 85.3827 135.756 85.4387 136.031 85.4387C136.311 85.4387 136.566 85.3781 136.794 85.2567C137.023 85.1354 137.217 84.9767 137.375 84.7807C137.534 84.5847 137.655 84.3631 137.739 84.1157C137.828 83.8684 137.872 83.6164 137.872 83.3597C137.872 83.0891 137.826 82.8301 137.732 82.5827C137.644 82.3307 137.518 82.1091 137.354 81.9177C137.191 81.7264 136.997 81.5747 136.773 81.4627C136.549 81.3461 136.302 81.2877 136.031 81.2877C135.751 81.2877 135.497 81.3484 135.268 81.4697C135.04 81.5864 134.846 81.7427 134.687 81.9387C134.529 82.1347 134.405 82.3564 134.316 82.6037C134.232 82.8511 134.19 83.1031 134.19 83.3597ZM139.776 81.7847V85.8447H139.286V80.8747H139.664L142.954 85.0117V80.8817H143.444V85.8447H143.017L139.776 81.7847ZM147.598 81.8057C147.458 81.6471 147.272 81.5187 147.038 81.4207C146.805 81.3227 146.539 81.2737 146.24 81.2737C145.802 81.2737 145.482 81.3577 145.281 81.5257C145.081 81.6891 144.98 81.9131 144.98 82.1977C144.98 82.3471 145.006 82.4707 145.057 82.5687C145.113 82.6621 145.197 82.7437 145.309 82.8137C145.421 82.8837 145.564 82.9444 145.736 82.9957C145.914 83.0471 146.121 83.0984 146.359 83.1497C146.625 83.2057 146.863 83.2687 147.073 83.3387C147.288 83.4087 147.47 83.4974 147.619 83.6047C147.769 83.7074 147.883 83.8334 147.962 83.9827C148.042 84.1321 148.081 84.3187 148.081 84.5427C148.081 84.7714 148.037 84.9697 147.948 85.1377C147.86 85.3057 147.736 85.4457 147.577 85.5577C147.419 85.6697 147.23 85.7537 147.01 85.8097C146.791 85.8611 146.551 85.8867 146.289 85.8867C145.519 85.8867 144.854 85.6464 144.294 85.1657L144.539 84.7667C144.628 84.8601 144.733 84.9487 144.854 85.0327C144.98 85.1167 145.118 85.1914 145.267 85.2567C145.421 85.3174 145.585 85.3664 145.757 85.4037C145.93 85.4364 146.112 85.4527 146.303 85.4527C146.7 85.4527 147.008 85.3827 147.227 85.2427C147.451 85.0981 147.563 84.8811 147.563 84.5917C147.563 84.4377 147.531 84.3094 147.465 84.2067C147.405 84.0994 147.311 84.0084 147.185 83.9337C147.059 83.8544 146.903 83.7867 146.716 83.7307C146.53 83.6747 146.313 83.6187 146.065 83.5627C145.804 83.5021 145.575 83.4391 145.379 83.3737C145.183 83.3084 145.018 83.2267 144.882 83.1287C144.747 83.0307 144.644 82.9141 144.574 82.7787C144.509 82.6387 144.476 82.4684 144.476 82.2677C144.476 82.0391 144.518 81.8361 144.602 81.6587C144.691 81.4767 144.815 81.3274 144.973 81.2107C145.132 81.0894 145.319 80.9984 145.533 80.9377C145.748 80.8724 145.986 80.8397 146.247 80.8397C146.579 80.8397 146.873 80.8911 147.129 80.9937C147.391 81.0917 147.626 81.2317 147.836 81.4137L147.598 81.8057ZM152.439 81.3087H150.668V85.8447H150.178V81.3087H148.407V80.8747H152.439V81.3087ZM153.184 85.8447V80.8747H155.284C155.498 80.8747 155.694 80.9214 155.872 81.0147C156.054 81.1034 156.21 81.2224 156.341 81.3717C156.471 81.5164 156.572 81.6821 156.642 81.8687C156.716 82.0554 156.754 82.2444 156.754 82.4357C156.754 82.6177 156.726 82.7927 156.67 82.9607C156.618 83.1241 156.544 83.2734 156.446 83.4087C156.352 83.5394 156.238 83.6514 156.103 83.7447C155.967 83.8334 155.816 83.8941 155.648 83.9267L156.866 85.8447H156.313L155.144 84.0107H153.674V85.8447H153.184ZM153.674 83.5767H155.298C155.442 83.5767 155.573 83.5464 155.69 83.4857C155.811 83.4204 155.914 83.3341 155.998 83.2267C156.082 83.1194 156.147 82.9981 156.194 82.8627C156.24 82.7274 156.264 82.5851 156.264 82.4357C156.264 82.2864 156.236 82.1441 156.18 82.0087C156.128 81.8687 156.056 81.7474 155.963 81.6447C155.874 81.5421 155.767 81.4604 155.641 81.3997C155.519 81.3391 155.391 81.3087 155.256 81.3087H153.674V83.5767ZM159.773 85.4387C160.085 85.4387 160.344 85.3804 160.55 85.2637C160.76 85.1424 160.925 84.9861 161.047 84.7947C161.173 84.5987 161.259 84.3771 161.306 84.1297C161.357 83.8824 161.383 83.6327 161.383 83.3807V80.8747H161.873V83.3807C161.873 83.7167 161.835 84.0364 161.761 84.3397C161.686 84.6384 161.565 84.9021 161.397 85.1307C161.233 85.3594 161.019 85.5414 160.753 85.6767C160.487 85.8121 160.162 85.8797 159.78 85.8797C159.388 85.8797 159.056 85.8097 158.786 85.6697C158.52 85.5251 158.305 85.3361 158.142 85.1027C157.978 84.8694 157.862 84.6034 157.792 84.3047C157.722 84.0061 157.687 83.6981 157.687 83.3807V80.8747H158.17V83.3807C158.17 83.6421 158.195 83.8964 158.247 84.1437C158.298 84.3911 158.384 84.6104 158.506 84.8017C158.632 84.9931 158.797 85.1471 159.003 85.2637C159.208 85.3804 159.465 85.4387 159.773 85.4387ZM162.712 83.3247C162.712 83.0261 162.763 82.7297 162.866 82.4357C162.973 82.1371 163.127 81.8711 163.328 81.6377C163.529 81.4044 163.776 81.2154 164.07 81.0707C164.364 80.9214 164.698 80.8467 165.071 80.8467C165.514 80.8467 165.892 80.9471 166.205 81.1477C166.522 81.3484 166.756 81.6097 166.905 81.9317L166.52 82.1697C166.441 82.0064 166.343 81.8687 166.226 81.7567C166.114 81.6447 165.993 81.5537 165.862 81.4837C165.731 81.4137 165.596 81.3647 165.456 81.3367C165.316 81.3041 165.178 81.2877 165.043 81.2877C164.744 81.2877 164.481 81.3484 164.252 81.4697C164.023 81.5911 163.83 81.7497 163.671 81.9457C163.517 82.1417 163.4 82.3634 163.321 82.6107C163.242 82.8534 163.202 83.1007 163.202 83.3527C163.202 83.6281 163.249 83.8917 163.342 84.1437C163.44 84.3957 163.571 84.6197 163.734 84.8157C163.902 85.0071 164.098 85.1611 164.322 85.2777C164.551 85.3897 164.798 85.4457 165.064 85.4457C165.204 85.4457 165.346 85.4294 165.491 85.3967C165.64 85.3594 165.783 85.3034 165.918 85.2287C166.058 85.1494 166.186 85.0537 166.303 84.9417C166.42 84.8251 166.518 84.6851 166.597 84.5217L167.003 84.7317C166.924 84.9184 166.812 85.0841 166.667 85.2287C166.522 85.3687 166.361 85.4877 166.184 85.5857C166.007 85.6837 165.818 85.7584 165.617 85.8097C165.421 85.8611 165.227 85.8867 165.036 85.8867C164.695 85.8867 164.383 85.8121 164.098 85.6627C163.813 85.5134 163.568 85.3197 163.363 85.0817C163.158 84.8391 162.997 84.5661 162.88 84.2627C162.768 83.9547 162.712 83.6421 162.712 83.3247ZM171.32 81.3087H169.549V85.8447H169.059V81.3087H167.288V80.8747H171.32V81.3087ZM172.064 85.8447V80.8747H172.554V85.8447H172.064ZM175.803 85.8797C175.457 85.8797 175.14 85.8097 174.851 85.6697C174.566 85.5251 174.321 85.3361 174.116 85.1027C173.91 84.8647 173.752 84.5941 173.64 84.2907C173.528 83.9874 173.472 83.6771 173.472 83.3597C173.472 83.0284 173.53 82.7111 173.647 82.4077C173.768 82.1044 173.934 81.8361 174.144 81.6027C174.354 81.3694 174.601 81.1851 174.886 81.0497C175.17 80.9097 175.478 80.8397 175.81 80.8397C176.155 80.8397 176.47 80.9144 176.755 81.0637C177.044 81.2084 177.289 81.3997 177.49 81.6377C177.695 81.8757 177.854 82.1464 177.966 82.4497C178.078 82.7484 178.134 83.0541 178.134 83.3667C178.134 83.6981 178.073 84.0154 177.952 84.3187C177.835 84.6221 177.672 84.8904 177.462 85.1237C177.256 85.3524 177.011 85.5367 176.727 85.6767C176.442 85.8121 176.134 85.8797 175.803 85.8797ZM173.962 83.3597C173.962 83.6304 174.006 83.8917 174.095 84.1437C174.183 84.3911 174.309 84.6127 174.473 84.8087C174.636 85.0001 174.83 85.1541 175.054 85.2707C175.278 85.3827 175.527 85.4387 175.803 85.4387C176.083 85.4387 176.337 85.3781 176.566 85.2567C176.794 85.1354 176.988 84.9767 177.147 84.7807C177.305 84.5847 177.427 84.3631 177.511 84.1157C177.599 83.8684 177.644 83.6164 177.644 83.3597C177.644 83.0891 177.597 82.8301 177.504 82.5827C177.415 82.3307 177.289 82.1091 177.126 81.9177C176.962 81.7264 176.769 81.5747 176.545 81.4627C176.321 81.3461 176.073 81.2877 175.803 81.2877C175.523 81.2877 175.268 81.3484 175.04 81.4697C174.811 81.5864 174.617 81.7427 174.459 81.9387C174.3 82.1347 174.176 82.3564 174.088 82.6037C174.004 82.8511 173.962 83.1031 173.962 83.3597ZM179.548 81.7847V85.8447H179.058V80.8747H179.436L182.726 85.0117V80.8817H183.216V85.8447H182.789L179.548 81.7847ZM190.652 85.8447V81.7637L188.839 84.9207H188.552L186.739 81.7637V85.8447H186.249V80.8747H186.753L188.692 84.2767L190.645 80.8747H191.142V85.8447H190.652ZM193.928 80.8747H194.341L196.406 85.8447H195.888L195.244 84.2907H193.011L192.374 85.8447H191.849L193.928 80.8747ZM195.132 83.9057L194.131 81.4487L193.116 83.9057H195.132ZM197.608 81.7847V85.8447H197.118V80.8747H197.496L200.786 85.0117V80.8817H201.276V85.8447H200.849L197.608 81.7847ZM204.065 80.8747H204.478L206.543 85.8447H206.025L205.381 84.2907H203.148L202.511 85.8447H201.986L204.065 80.8747ZM205.269 83.9057L204.268 81.4487L203.253 83.9057H205.269ZM210.662 85.1167C210.2 85.6254 209.668 85.8797 209.066 85.8797C208.73 85.8797 208.42 85.8074 208.135 85.6627C207.855 85.5181 207.61 85.3267 207.4 85.0887C207.195 84.8507 207.034 84.5824 206.917 84.2837C206.801 83.9804 206.742 83.6701 206.742 83.3527C206.742 83.0214 206.798 82.7041 206.91 82.4007C207.027 82.0974 207.188 81.8314 207.393 81.6027C207.599 81.3694 207.841 81.1851 208.121 81.0497C208.401 80.9097 208.707 80.8397 209.038 80.8397C209.281 80.8397 209.503 80.8677 209.703 80.9237C209.904 80.9751 210.081 81.0497 210.235 81.1477C210.394 81.2411 210.529 81.3554 210.641 81.4907C210.758 81.6214 210.856 81.7661 210.935 81.9247L210.557 82.1767C210.394 81.8687 210.182 81.6424 209.92 81.4977C209.659 81.3531 209.363 81.2807 209.031 81.2807C208.756 81.2807 208.506 81.3391 208.282 81.4557C208.063 81.5724 207.874 81.7287 207.715 81.9247C207.561 82.1161 207.442 82.3377 207.358 82.5897C207.274 82.8371 207.232 83.0937 207.232 83.3597C207.232 83.6397 207.279 83.9057 207.372 84.1577C207.47 84.4097 207.603 84.6314 207.771 84.8227C207.939 85.0094 208.135 85.1587 208.359 85.2707C208.588 85.3827 208.835 85.4387 209.101 85.4387C209.386 85.4387 209.657 85.3734 209.913 85.2427C210.175 85.1074 210.424 84.8951 210.662 84.6057V83.7797H209.556V83.4017H211.075V85.8447H210.662V85.1167ZM216.485 85.8447V81.7637L214.672 84.9207H214.385L212.572 81.7637V85.8447H212.082V80.8747H212.586L214.525 84.2767L216.478 80.8747H216.975V85.8447H216.485ZM221.56 85.4107V85.8447H218.221V80.8747H221.497V81.3087H218.711V83.1007H221.14V83.5137H218.711V85.4107H221.56ZM226.889 85.8447V81.7637L225.076 84.9207H224.789L222.976 81.7637V85.8447H222.486V80.8747H222.99L224.929 84.2767L226.882 80.8747H227.379V85.8447H226.889ZM231.964 85.4107V85.8447H228.625V80.8747H231.901V81.3087H229.115V83.1007H231.544V83.5137H229.115V85.4107H231.964ZM233.381 81.7847V85.8447H232.891V80.8747H233.269L236.559 85.0117V80.8817H237.049V85.8447H236.622L233.381 81.7847ZM241.826 81.3087H240.055V85.8447H239.565V81.3087H237.794V80.8747H241.826V81.3087Z" fill="black"/>
</g>
</svg>
