<svg width="285" height="144" viewBox="0 0 285 144" fill="none" xmlns="http://www.w3.org/2000/svg">
<g opacity="0.8">
<path d="M119.048 48.9132C125.337 48.9132 130.196 50.5208 133.623 53.7362C137.05 56.9515 138.764 61.6332 138.764 67.7812C138.764 73.9292 137.05 78.6109 133.623 81.8262C130.196 85.0415 125.337 86.6492 119.048 86.6492C112.759 86.6492 107.9 85.0592 104.473 81.8792C101.081 78.6638 99.385 73.9645 99.385 67.7812C99.385 61.5978 101.081 56.9162 104.473 53.7362C107.9 50.5208 112.759 48.9132 119.048 48.9132ZM119.048 57.6582C116.539 57.6582 114.631 58.4178 113.324 59.9372C112.017 61.4565 111.363 63.5058 111.363 66.0852V69.4772C111.363 72.0565 112.017 74.1058 113.324 75.6252C114.631 77.1445 116.539 77.9042 119.048 77.9042C121.557 77.9042 123.465 77.1445 124.772 75.6252C126.115 74.1058 126.786 72.0565 126.786 69.4772V66.0852C126.786 63.5058 126.115 61.4565 124.772 59.9372C123.465 58.4178 121.557 57.6582 119.048 57.6582ZM172.684 86.0132V72.8692C172.684 71.2439 172.737 69.5832 172.843 67.8872C172.985 66.1558 173.126 64.7072 173.267 63.5412C173.409 62.3752 173.497 61.6332 173.532 61.3152H173.32L166.589 86.0132H157.42L150.636 61.3682H150.424C150.46 61.6862 150.548 62.4282 150.689 63.5942C150.866 64.7248 151.025 66.1558 151.166 67.8872C151.308 69.5832 151.378 71.2439 151.378 72.8692V86.0132H140.619V49.5492H157.155L162.667 70.5902H162.879L168.338 49.5492H184.291V86.0132H172.684Z" fill="black"/>
<path d="M130.34 100.987V92.7548H131.252L134.312 97.9268C134.376 98.0308 134.444 98.1708 134.516 98.3468C134.596 98.5228 134.664 98.6828 134.72 98.8268C134.784 98.9628 134.816 99.0308 134.816 99.0308L134.852 99.0188C134.852 99.0188 134.848 98.9468 134.84 98.8028C134.84 98.6588 134.836 98.4988 134.828 98.3228C134.82 98.1468 134.816 98.0148 134.816 97.9268V92.7548H135.764V100.987H134.888L131.804 95.7428C131.74 95.6228 131.664 95.4788 131.576 95.3108C131.496 95.1348 131.424 94.9788 131.36 94.8428C131.304 94.7068 131.276 94.6388 131.276 94.6388L131.24 94.6508C131.24 94.6508 131.244 94.7188 131.252 94.8548C131.26 94.9908 131.268 95.1468 131.276 95.3228C131.284 95.4908 131.288 95.6308 131.288 95.7428V100.987H130.34ZM141.402 100.987V97.5788L138.738 92.7548H139.902L141.99 96.5708H142.038L144.09 92.7548H145.11L142.458 97.5788V100.987H141.402ZM150.988 101.131C148.828 101.131 147.748 99.7108 147.748 96.8708C147.748 94.0308 148.828 92.6108 150.988 92.6108C151.548 92.6108 152.044 92.7268 152.476 92.9588C152.908 93.1828 153.244 93.5268 153.484 93.9908C153.732 94.4468 153.856 95.0268 153.856 95.7308H152.776C152.776 95.0108 152.612 94.4748 152.284 94.1228C151.964 93.7628 151.532 93.5828 150.988 93.5828C149.564 93.5828 148.852 94.5788 148.852 96.5708V97.1708C148.852 99.1628 149.564 100.159 150.988 100.159C151.54 100.159 151.98 99.9828 152.308 99.6308C152.644 99.2788 152.812 98.7468 152.812 98.0348H153.856C153.856 98.7388 153.732 99.3228 153.484 99.7868C153.244 100.243 152.908 100.583 152.476 100.807C152.044 101.023 151.548 101.131 150.988 101.131Z" fill="black"/>
</g>
</svg>
