<svg width="286" height="144" viewBox="0 0 286 144" fill="none" xmlns="http://www.w3.org/2000/svg">
<path opacity="0.4" fill-rule="evenodd" clip-rule="evenodd" d="M91.9556 50.2231H76.2368V69.7153H91.9556V50.2231ZM91.9556 70.7153H76.2368V90.8892H91.9556V70.7153ZM75.2368 69.7153V50.2231H59.5845V69.7153H75.2368ZM59.5845 70.7153H75.2368V90.8892H59.5845V70.7153ZM58.5845 70.7153V69.7153V50.2231V49.2231H59.5845H91.9556H92.9556V50.2231V90.8892V91.8892H91.9556H59.5845H58.5845V90.8892V70.7153Z" fill="black"/>
<path d="M103.747 77.8443H97.8481L103.844 49.2114H115.485C117.555 49.2114 119.189 49.4588 120.387 49.9536C121.598 50.4354 122.555 51.2427 123.258 52.3755C123.961 53.4953 124.313 54.8364 124.313 56.3989C124.313 57.8442 124.033 59.2505 123.473 60.6177C122.913 61.9849 122.223 63.0786 121.403 63.8989C120.596 64.7193 119.723 65.3443 118.786 65.7739C117.848 66.1906 116.585 66.5096 114.997 66.731C114.072 66.8612 112.34 66.9263 109.801 66.9263H106.032L103.747 77.8443ZM107.008 62.1802H108.825C111.937 62.1802 114.014 61.9849 115.055 61.5943C116.097 61.2036 116.917 60.5786 117.516 59.7193C118.115 58.8599 118.415 57.9159 118.415 56.8872C118.415 56.1971 118.258 55.6307 117.946 55.188C117.646 54.7453 117.217 54.4263 116.657 54.231C116.11 54.0226 114.879 53.9185 112.965 53.9185H108.747L107.008 62.1802Z" fill="black"/>
<path d="M131.363 77.8443H125.464L131.46 49.2114H144.175C146.363 49.2114 148.062 49.4393 149.273 49.895C150.497 50.3377 151.48 51.158 152.222 52.356C152.977 53.5539 153.355 55.0057 153.355 56.7114C153.355 59.1463 152.626 61.1581 151.168 62.7466C149.709 64.3221 147.502 65.2987 144.546 65.6763C145.302 66.3534 146.011 67.2453 146.675 68.3521C147.99 70.5917 149.455 73.7557 151.07 77.8443H144.742C144.234 76.2297 143.238 73.7101 141.753 70.2857C140.946 68.4367 140.087 67.1932 139.175 66.5552C138.615 66.1776 137.639 65.9888 136.246 65.9888H133.843L131.363 77.8443ZM134.742 61.6919H137.867C141.031 61.6919 143.127 61.5031 144.156 61.1255C145.197 60.7479 146.011 60.1555 146.597 59.3482C147.183 58.5409 147.476 57.6945 147.476 56.8091C147.476 55.7674 147.053 54.9862 146.207 54.4653C145.686 54.1528 144.559 53.9966 142.828 53.9966H136.343L134.742 61.6919Z" fill="black"/>
<path d="M154.8 77.8443L160.796 49.2114H166.675L160.698 77.8443H154.8Z" fill="black"/>
<path d="M183.452 77.8443H177.866L176.83 53.9185L172.28 77.8443H166.967L172.944 49.2114H181.342L182.221 69.27L191.987 49.2114H200.483L194.487 77.8443H189.116L194.76 54.0942L183.452 77.8443Z" fill="black"/>
<path d="M201.107 77.8443L207.084 49.2114H228.314L227.318 53.9966H211.986L210.619 60.5005H225.443L224.447 65.2857H209.623L207.826 73.0591H224.486L223.47 77.8443H201.107Z" fill="black"/>
<path opacity="0.4" d="M100.546 91.8447L97.8872 81.8232H99.2476L100.772 88.3926C100.936 89.0807 101.077 89.7643 101.196 90.4434C101.451 89.3724 101.601 88.7549 101.647 88.5908L103.554 81.8232H105.154L106.589 86.8955C106.949 88.1533 107.209 89.3359 107.369 90.4434C107.496 89.8099 107.663 89.083 107.868 88.2627L109.44 81.8232H110.773L108.025 91.8447H106.747L104.634 84.209C104.457 83.571 104.352 83.179 104.32 83.0332C104.215 83.4935 104.117 83.8854 104.026 84.209L101.9 91.8447H100.546Z" fill="black"/>
<path opacity="0.4" d="M111.657 83.2383V81.8232H112.887V83.2383H111.657ZM111.657 91.8447V84.585H112.887V91.8447H111.657Z" fill="black"/>
<path opacity="0.4" d="M114.557 91.8447V84.585H115.665V85.6172C116.198 84.8197 116.968 84.4209 117.975 84.4209C118.413 84.4209 118.814 84.5007 119.178 84.6602C119.547 84.8151 119.823 85.0202 120.005 85.2754C120.188 85.5306 120.315 85.8337 120.388 86.1846C120.434 86.4124 120.457 86.8112 120.457 87.3809V91.8447H119.226V87.4287C119.226 86.9274 119.178 86.5537 119.083 86.3076C118.987 86.057 118.816 85.8587 118.57 85.7129C118.328 85.5625 118.044 85.4873 117.715 85.4873C117.191 85.4873 116.738 85.6537 116.355 85.9863C115.977 86.319 115.788 86.9502 115.788 87.8799V91.8447H114.557Z" fill="black"/>
<path opacity="0.4" d="M126.85 91.8447V90.9287C126.39 91.6488 125.713 92.0088 124.82 92.0088C124.241 92.0088 123.708 91.8493 123.22 91.5303C122.737 91.2113 122.361 90.7669 122.092 90.1973C121.828 89.6231 121.696 88.9645 121.696 88.2217C121.696 87.4971 121.817 86.8408 122.058 86.2529C122.3 85.6605 122.662 85.207 123.145 84.8926C123.628 84.5781 124.168 84.4209 124.765 84.4209C125.203 84.4209 125.592 84.5143 125.934 84.7012C126.276 84.8835 126.554 85.1227 126.768 85.419V81.8232H127.992V91.8447H126.85ZM122.96 88.2217C122.96 89.1514 123.156 89.8464 123.548 90.3066C123.94 90.7669 124.403 90.9971 124.936 90.9971C125.474 90.9971 125.93 90.7783 126.303 90.3408C126.682 89.8988 126.871 89.2266 126.871 88.3242C126.871 87.3307 126.679 86.6016 126.296 86.1367C125.914 85.6719 125.442 85.4395 124.881 85.4395C124.334 85.4395 123.876 85.6628 123.507 86.1094C123.143 86.556 122.96 87.2601 122.96 88.2217Z" fill="black"/>
<path opacity="0.4" d="M129.265 88.2148C129.265 86.8704 129.639 85.8747 130.386 85.2275C131.011 84.6898 131.772 84.4209 132.669 84.4209C133.667 84.4209 134.483 84.749 135.117 85.4053C135.75 86.057 136.067 86.9593 136.067 88.1123C136.067 89.0466 135.926 89.7826 135.643 90.3203C135.365 90.8535 134.957 91.2682 134.419 91.5645C133.886 91.8607 133.303 92.0088 132.669 92.0088C131.653 92.0088 130.831 91.6829 130.202 91.0313C129.577 90.3796 129.265 89.4408 129.265 88.2148ZM130.53 88.2148C130.53 89.1445 130.733 89.8418 131.138 90.3066C131.544 90.7669 132.054 90.9971 132.669 90.9971C133.28 90.9971 133.788 90.7647 134.194 90.2998C134.599 89.835 134.802 89.1263 134.802 88.1738C134.802 87.276 134.597 86.597 134.187 86.1367C133.781 85.6719 133.276 85.4395 132.669 85.4395C132.054 85.4395 131.544 85.6696 131.138 86.1299C130.733 86.5902 130.53 87.2852 130.53 88.2148Z" fill="black"/>
<path opacity="0.4" d="M138.646 91.8456L136.424 84.5859H137.696L138.851 88.7763L139.282 90.3349C139.3 90.2574 139.425 89.7584 139.658 88.8378L140.813 84.5859H142.078L143.165 88.7968L143.527 90.1845L143.944 88.7831L145.188 84.5859H146.384L144.115 91.8456H142.836L141.681 87.498L141.401 86.2607L139.931 91.8456H138.646Z" fill="black"/>
<path opacity="0.4" d="M158.207 88.332L159.534 88.6669C159.256 89.7561 158.754 90.5878 158.029 91.162C157.309 91.7317 156.427 92.0165 155.384 92.0165C154.304 92.0165 153.424 91.7978 152.745 91.3603C152.071 90.9182 151.556 90.2802 151.2 89.4462C150.849 88.6122 150.674 87.7167 150.674 86.7597C150.674 85.7161 150.872 84.8069 151.269 84.0322C151.67 83.2529 152.237 82.6627 152.971 82.2616C153.709 81.856 154.52 81.6533 155.404 81.6533C156.407 81.6533 157.25 81.9085 157.934 82.4189C158.618 82.9293 159.094 83.6471 159.363 84.5722L158.057 84.8798C157.824 84.1506 157.487 83.6197 157.045 83.287C156.603 82.9544 156.047 82.788 155.377 82.788C154.607 82.788 153.962 82.9726 153.442 83.3417C152.927 83.7109 152.565 84.2076 152.356 84.832C152.146 85.4518 152.041 86.0921 152.041 86.7529C152.041 87.6051 152.164 88.3502 152.41 88.9882C152.661 89.6217 153.048 90.0956 153.572 90.4101C154.096 90.7245 154.664 90.8818 155.274 90.8818C156.017 90.8818 156.646 90.6676 157.161 90.2392C157.676 89.8108 158.025 89.1751 158.207 88.332Z" fill="black"/>
<path opacity="0.4" d="M160.78 91.8447V81.8232H162.01V91.8447H160.78Z" fill="black"/>
<path opacity="0.4" d="M168.684 89.5068L169.956 89.6641C169.755 90.4069 169.384 90.9834 168.841 91.3936C168.299 91.8037 167.606 92.0088 166.763 92.0088C165.701 92.0088 164.858 91.6829 164.234 91.0313C163.614 90.375 163.304 89.4567 163.304 88.2764C163.304 87.055 163.619 86.1071 164.248 85.4326C164.876 84.7581 165.692 84.4209 166.695 84.4209C167.665 84.4209 168.458 84.7513 169.074 85.4121C169.689 86.0729 169.997 87.0026 169.997 88.2012C169.997 88.2741 169.994 88.3835 169.99 88.5293H164.576C164.621 89.3268 164.847 89.9375 165.252 90.3613C165.658 90.7852 166.164 90.9971 166.77 90.9971C167.221 90.9971 167.606 90.8786 167.925 90.6416C168.244 90.4046 168.497 90.0264 168.684 89.5068ZM164.644 87.5176H168.698C168.643 86.9069 168.488 86.4489 168.233 86.1436C167.841 85.6696 167.333 85.4326 166.708 85.4326C166.143 85.4326 165.667 85.6218 165.28 86C164.897 86.3783 164.685 86.8841 164.644 87.5176Z" fill="black"/>
<path opacity="0.4" d="M176.035 90.9492C175.579 91.3366 175.139 91.61 174.715 91.7695C174.296 91.929 173.845 92.0088 173.362 92.0088C172.564 92.0088 171.951 91.8151 171.523 91.4277C171.094 91.0358 170.88 90.5368 170.88 89.9307C170.88 89.5752 170.96 89.2516 171.12 88.96C171.284 88.6637 171.496 88.4268 171.755 88.249C172.02 88.0713 172.316 87.9369 172.644 87.8457C172.885 87.7819 173.25 87.7204 173.738 87.6611C174.731 87.5426 175.463 87.4014 175.932 87.2373C175.937 87.0687 175.939 86.9616 175.939 86.916C175.939 86.4147 175.823 86.0615 175.59 85.8565C175.276 85.5785 174.809 85.4395 174.189 85.4395C173.61 85.4395 173.182 85.542 172.904 85.7471C172.63 85.9476 172.427 86.3053 172.295 86.8203L171.092 86.6563C171.202 86.1413 171.382 85.7266 171.632 85.4121C171.883 85.0931 172.245 84.8493 172.719 84.6807C173.193 84.5075 173.742 84.4209 174.367 84.4209C174.986 84.4209 175.49 84.4938 175.877 84.6397C176.265 84.7855 176.55 84.9701 176.732 85.1934C176.914 85.4121 177.042 85.6901 177.115 86.0274C177.156 86.237 177.176 86.6152 177.176 87.1621V88.8027C177.176 89.9466 177.201 90.6712 177.251 90.9766C177.306 91.2774 177.411 91.5667 177.566 91.8447H176.281C176.153 91.5895 176.071 91.291 176.035 90.9492ZM175.932 88.2012C175.485 88.3835 174.815 88.5384 173.922 88.666C173.416 88.7389 173.059 88.821 172.849 88.9121C172.639 89.0033 172.478 89.1377 172.364 89.3154C172.25 89.4886 172.193 89.6823 172.193 89.8965C172.193 90.2246 172.316 90.4981 172.562 90.7168C172.813 90.9356 173.177 91.0449 173.656 91.0449C174.13 91.0449 174.551 90.9424 174.92 90.7373C175.289 90.5277 175.561 90.2428 175.734 89.8828C175.866 89.6048 175.932 89.1947 175.932 88.6524V88.2012Z" fill="black"/>
<path opacity="0.4" d="M178.88 91.8447V84.585H179.988V85.6172C180.521 84.8197 181.291 84.4209 182.298 84.4209C182.736 84.4209 183.137 84.5007 183.501 84.6602C183.87 84.8151 184.146 85.0202 184.328 85.2754C184.511 85.5306 184.638 85.8337 184.711 86.1846C184.757 86.4124 184.78 86.8112 184.78 87.3809V91.8447H183.549V87.4287C183.549 86.9274 183.501 86.5537 183.406 86.3076C183.31 86.057 183.139 85.8587 182.893 85.7129C182.651 85.5625 182.367 85.4873 182.038 85.4873C181.514 85.4873 181.061 85.6537 180.678 85.9863C180.3 86.319 180.111 86.9502 180.111 87.8799V91.8447H178.88Z" fill="black"/>
<path opacity="0.4" d="M186.47 83.2383V81.8232H187.701V83.2383H186.47ZM186.47 91.8447V84.585H187.701V91.8447H186.47Z" fill="black"/>
<path opacity="0.4" d="M189.37 91.8447V84.585H190.478V85.6172C191.011 84.8197 191.781 84.4209 192.788 84.4209C193.226 84.4209 193.627 84.5007 193.991 84.6602C194.361 84.8151 194.636 85.0202 194.819 85.2754C195.001 85.5306 195.129 85.8337 195.201 86.1846C195.247 86.4124 195.27 86.8112 195.27 87.3809V91.8447H194.039V87.4287C194.039 86.9274 193.991 86.5537 193.896 86.3076C193.8 86.057 193.629 85.8587 193.383 85.7129C193.142 85.5625 192.857 85.4873 192.529 85.4873C192.005 85.4873 191.551 85.6537 191.168 85.9863C190.79 86.319 190.601 86.9502 190.601 87.8799V91.8447H189.37Z" fill="black"/>
<path opacity="0.4" d="M196.728 92.4463L197.924 92.624C197.974 92.9932 198.113 93.2621 198.341 93.4307C198.646 93.6585 199.063 93.7725 199.592 93.7725C200.162 93.7725 200.601 93.6585 200.911 93.4307C201.221 93.2028 201.431 92.8838 201.54 92.4736C201.604 92.223 201.634 91.6966 201.629 90.8945C201.091 91.528 200.421 91.8447 199.619 91.8447C198.621 91.8447 197.849 91.4847 197.302 90.7647C196.755 90.0446 196.482 89.181 196.482 88.1738C196.482 87.4811 196.607 86.8431 196.858 86.2598C197.108 85.6719 197.471 85.2184 197.945 84.8994C198.423 84.5804 198.984 84.4209 199.626 84.4209C200.483 84.4209 201.189 84.7673 201.745 85.46V84.585H202.88V90.8604C202.88 91.9906 202.764 92.7904 202.531 93.2598C202.304 93.7337 201.939 94.1074 201.438 94.3809C200.941 94.6543 200.328 94.791 199.599 94.791C198.733 94.791 198.033 94.5951 197.5 94.2031C196.967 93.8158 196.71 93.2301 196.728 92.4463ZM197.746 88.085C197.746 89.0374 197.935 89.7324 198.314 90.1699C198.692 90.6074 199.166 90.8262 199.736 90.8262C200.301 90.8262 200.775 90.6097 201.157 90.1768C201.54 89.7393 201.732 89.0557 201.732 88.126C201.732 87.2373 201.533 86.5674 201.137 86.1162C200.745 85.665 200.271 85.4395 199.715 85.4395C199.168 85.4395 198.703 85.6628 198.321 86.1094C197.938 86.5514 197.746 87.21 197.746 88.085Z" fill="black"/>
<path opacity="0.4" d="M215.53 88.332L216.857 88.6669C216.579 89.7561 216.077 90.5878 215.353 91.162C214.633 91.7317 213.751 92.0165 212.707 92.0165C211.627 92.0165 210.748 91.7978 210.069 91.3603C209.394 90.9182 208.879 90.2802 208.524 89.4462C208.173 88.6122 207.997 87.7167 207.997 86.7597C207.997 85.7161 208.195 84.8069 208.592 84.0322C208.993 83.2529 209.56 82.6627 210.294 82.2616C211.032 81.856 211.844 81.6533 212.728 81.6533C213.73 81.6533 214.573 81.9085 215.257 82.4189C215.941 82.9293 216.417 83.6471 216.686 84.5722L215.38 84.8798C215.148 84.1506 214.81 83.6197 214.368 83.287C213.926 82.9544 213.37 82.788 212.7 82.788C211.93 82.788 211.285 82.9726 210.766 83.3417C210.251 83.7109 209.889 84.2076 209.679 84.832C209.469 85.4518 209.364 86.0921 209.364 86.7529C209.364 87.6051 209.487 88.3502 209.734 88.9882C209.984 89.6217 210.372 90.0956 210.896 90.4101C211.42 90.7245 211.987 90.8818 212.598 90.8818C213.341 90.8818 213.97 90.6676 214.485 90.2392C215 89.8108 215.348 89.1751 215.53 88.332Z" fill="black"/>
<path opacity="0.4" d="M217.672 88.2148C217.672 86.8704 218.046 85.8747 218.793 85.2275C219.417 84.6898 220.179 84.4209 221.076 84.4209C222.074 84.4209 222.89 84.749 223.524 85.4053C224.157 86.057 224.474 86.9593 224.474 88.1123C224.474 89.0466 224.332 89.7826 224.05 90.3203C223.772 90.8535 223.364 91.2682 222.826 91.5645C222.293 91.8607 221.71 92.0088 221.076 92.0088C220.06 92.0088 219.237 91.6829 218.609 91.0313C217.984 90.3796 217.672 89.4408 217.672 88.2148ZM218.937 88.2148C218.937 89.1445 219.139 89.8418 219.545 90.3066C219.951 90.7669 220.461 90.9971 221.076 90.9971C221.687 90.9971 222.195 90.7647 222.601 90.2998C223.006 89.835 223.209 89.1263 223.209 88.1738C223.209 87.276 223.004 86.597 222.594 86.1367C222.188 85.6719 221.682 85.4395 221.076 85.4395C220.461 85.4395 219.951 85.6696 219.545 86.1299C219.139 86.5902 218.937 87.2852 218.937 88.2148Z" fill="black"/>
<path d="M226.062 91.8456V90.4443H227.463V91.8456H226.062Z" fill="black"/>
</svg>
