<svg width="285" height="144" viewBox="0 0 285 144" fill="none" xmlns="http://www.w3.org/2000/svg">
<path fill-rule="evenodd" clip-rule="evenodd" d="M93.4578 78.1448C94.3978 79.5325 95.9533 80.2263 98.1243 80.2263C99.6463 80.2263 101.28 79.7675 103.026 78.8499V79.857H106.148V55.9536H103.026V63.1716C101.593 62.8583 100.284 62.7016 99.0979 62.7016C96.6359 62.7016 94.8454 63.4178 93.7263 64.8502C92.6073 66.2603 92.0477 68.5544 92.0477 71.7326C92.0477 74.5974 92.5178 76.7348 93.4578 78.1448ZM100.609 77.1713C99.9148 77.3279 99.2993 77.4063 98.7622 77.4063C97.4864 77.4063 96.58 76.9362 96.0428 75.9962C95.5281 75.0562 95.2707 73.579 95.2707 71.5647C95.2707 69.3489 95.584 67.771 96.2107 66.831C96.8374 65.891 97.9229 65.421 99.4672 65.421C100.452 65.421 101.638 65.5553 103.026 65.8238V76.3991L102.422 76.6341C101.907 76.8355 101.302 77.0146 100.609 77.1713ZM50.0303 79.6556C50.7017 80.0361 51.6306 80.2263 52.8168 80.2263C53.6673 80.2263 54.8759 80.092 56.4426 79.8235L56.2411 77.272L53.3875 77.4398C52.7384 77.4398 52.2684 77.3055 51.9775 77.037C51.6865 76.746 51.4963 76.3431 51.4067 75.8284C51.3396 75.2912 51.306 74.4967 51.306 73.4447V65.7567H56.2411V63.0709H51.306V58.0687H48.1838V63.0709H45.9345V65.7567H48.1838V74.0155C48.1838 75.6045 48.3293 76.8467 48.6202 77.742C48.9112 78.6372 49.3812 79.2751 50.0303 79.6556ZM24.3544 79.6892C26.4358 80.0473 28.1256 80.2263 29.4238 80.2263C31.6619 80.2263 33.3181 79.8011 34.3924 78.9506C35.4668 78.0777 36.0039 76.7124 36.0039 74.8548C36.0039 73.7805 35.8137 72.93 35.4332 72.3033C35.0751 71.6766 34.5155 71.2066 33.7546 70.8932C33.016 70.5575 31.9864 70.2666 30.6659 70.0204C30.1959 69.9308 29.8826 69.8749 29.7259 69.8525C28.8754 69.6958 28.2152 69.5504 27.7452 69.4161C27.2975 69.2818 26.9282 69.0803 26.6373 68.8118C26.3463 68.5208 26.2008 68.1179 26.2008 67.6032C26.2008 66.2155 27.3423 65.5217 29.6252 65.5217C30.9681 65.5217 32.8929 65.7007 35.3996 66.0588L35.4668 63.4402L34.4932 63.2388C32.4788 62.9031 30.8002 62.7352 29.4573 62.7352C25.2049 62.7352 23.0786 64.4698 23.0786 67.9389C23.0786 68.9908 23.28 69.8189 23.6829 70.4232C24.0858 71.0275 24.6565 71.4864 25.3951 71.7997C26.1561 72.113 27.1744 72.3704 28.4502 72.5719L29.2559 72.7061C30.1288 72.8404 30.8002 72.9859 31.2702 73.1426C31.7402 73.2769 32.1207 73.5007 32.4117 73.814C32.725 74.105 32.8817 74.5414 32.8817 75.1233C32.8817 75.9291 32.5795 76.511 31.9753 76.8691C31.3709 77.2272 30.4757 77.4063 29.2895 77.4063C28.1256 77.4063 26.1896 77.216 23.4815 76.8355L23.3472 79.5213L24.3544 79.6892ZM72.338 80.2263C70.8832 80.2263 69.7641 79.9577 68.9807 79.4206C68.1974 78.8611 67.649 77.9882 67.3357 76.802C67.0224 75.5934 66.8657 73.9371 66.8657 71.8333V63.0709H69.9879V71.8333C69.9879 73.3776 70.0662 74.5414 70.2229 75.3248C70.3796 76.0858 70.6705 76.6229 71.0958 76.9362C71.5434 77.2496 72.2149 77.4063 73.1101 77.4063C73.8487 77.4063 74.5425 77.3167 75.1916 77.1377C75.863 76.9586 76.5793 76.7012 77.3402 76.3655V63.0709H80.4624V79.857H77.3402V78.7491C76.4002 79.2863 75.5497 79.6668 74.7887 79.8906C74.0501 80.1144 73.2332 80.2263 72.338 80.2263ZM118.508 63.0709H121.63V79.857H118.508V63.0709ZM118.508 56.3901H121.597V59.7808H118.508V56.3901ZM134.71 78.1448C135.852 79.5325 137.732 80.2263 140.35 80.2263C142.969 80.2263 144.849 79.5213 145.99 78.1113C147.132 76.7012 147.703 74.5079 147.703 71.5311C147.703 68.4872 147.121 66.2603 145.957 64.8502C144.815 63.4178 142.947 62.7016 140.35 62.7016C137.776 62.7016 135.908 63.4066 134.744 64.8167C133.58 66.2267 132.998 68.4649 132.998 71.5311C132.998 74.5302 133.569 76.7348 134.71 78.1448ZM142.835 76.9362C142.253 77.3167 141.425 77.507 140.35 77.507C139.276 77.507 138.437 77.3167 137.832 76.9362C137.228 76.5558 136.803 75.9403 136.557 75.0898C136.31 74.2169 136.187 73.0307 136.187 71.5311C136.187 69.9644 136.31 68.7446 136.557 67.8717C136.825 66.9765 137.262 66.3498 137.866 65.9917C138.47 65.6112 139.298 65.421 140.35 65.421C141.402 65.421 142.219 65.6112 142.801 65.9917C143.405 66.3498 143.831 66.9653 144.077 67.8382C144.345 68.7111 144.48 69.942 144.48 71.5311C144.48 73.0531 144.357 74.2393 144.11 75.0898C143.864 75.9403 143.439 76.5558 142.835 76.9362ZM174.36 63.0709H177.448V64.1788C178.411 63.6417 179.284 63.2612 180.067 63.0373C180.85 62.8135 181.678 62.7016 182.551 62.7016C183.961 62.7016 185.069 62.9814 185.875 63.5409C186.681 64.1005 187.251 64.9733 187.587 66.1596C187.923 67.3234 188.091 68.9125 188.091 70.9268V79.857H184.969V70.994C184.969 69.5839 184.879 68.4984 184.7 67.7375C184.543 66.9541 184.23 66.3946 183.76 66.0588C183.312 65.7007 182.652 65.5217 181.779 65.5217C180.593 65.5217 179.351 65.7791 178.053 66.2939L177.482 66.5624V79.857H174.36V63.0709ZM200.445 78.8834C201.273 79.7787 202.482 80.2263 204.071 80.2263C205.973 80.2263 207.876 79.7899 209.778 78.917C210.293 79.3646 210.886 79.6892 211.557 79.8906C212.229 80.1144 213.046 80.2263 214.008 80.2263L214.109 77.8091C213.549 77.7196 213.135 77.5629 212.867 77.3391C212.621 77.0929 212.475 76.746 212.43 76.2984V68.2075C212.43 66.305 211.983 64.9174 211.087 64.0445C210.192 63.1493 208.76 62.7016 206.79 62.7016C204.753 62.7016 202.549 62.9814 200.176 63.5409L200.277 65.8238C202.739 65.5553 204.91 65.421 206.79 65.421C207.618 65.421 208.245 65.6448 208.67 66.0924C209.096 66.5177 209.308 67.2227 209.308 68.2075V69.5168L204.541 69.9532C202.683 70.1323 201.329 70.6135 200.479 71.3968C199.628 72.1578 199.203 73.3664 199.203 75.0226C199.203 76.7012 199.617 77.9882 200.445 78.8834ZM208.603 76.9698C207.327 77.3951 206.007 77.6077 204.642 77.6077C203.142 77.6077 202.392 76.7124 202.392 74.9219C202.392 74.0714 202.594 73.4335 202.997 73.0083C203.422 72.5607 204.071 72.2921 204.944 72.2026L209.308 71.7997V76.7348L208.603 76.9698ZM230.355 80.2263C229.169 80.2263 228.24 80.0361 227.568 79.6556C226.919 79.2751 226.449 78.6372 226.158 77.742C225.867 76.8467 225.722 75.6045 225.722 74.0155V65.7567H223.472V63.0709H225.722V58.0687H228.844V63.0709H233.779V65.7567H228.844V73.4447C228.844 74.4967 228.878 75.2912 228.945 75.8284C229.034 76.3431 229.225 76.746 229.515 77.037C229.806 77.3055 230.276 77.4398 230.925 77.4398L233.779 77.272L233.981 79.8235C232.414 80.092 231.205 80.2263 230.355 80.2263ZM245.512 78.1448C246.653 79.5325 248.533 80.2263 251.152 80.2263C253.77 80.2263 255.65 79.5213 256.792 78.1113C257.933 76.7012 258.504 74.5079 258.504 71.5311C258.504 71.3539 258.502 71.1795 258.498 71.0078H261.921V68.7578H258.31C258.051 67.0925 257.534 65.7899 256.758 64.8502C255.617 63.4178 253.748 62.7016 251.152 62.7016C248.578 62.7016 246.709 63.4066 245.545 64.8167C244.767 65.7599 244.249 67.0736 243.991 68.7578H240.035V71.0078H243.805C243.801 71.1795 243.799 71.3539 243.799 71.5311C243.799 74.5302 244.37 76.7348 245.512 78.1448ZM246.994 71.0078C246.99 71.1777 246.989 71.3521 246.989 71.5311C246.989 73.0307 247.112 74.2169 247.358 75.0898C247.604 75.9403 248.029 76.5558 248.634 76.9362C249.238 77.3167 250.077 77.507 251.152 77.507C252.226 77.507 253.054 77.3167 253.636 76.9362C254.24 76.5558 254.666 75.9403 254.912 75.0898C255.158 74.2393 255.281 73.0531 255.281 71.5311C255.281 71.3521 255.279 71.1777 255.276 71.0078H246.994ZM247.169 68.7578H255.09C255.032 68.4165 254.962 68.11 254.878 67.8382C254.632 66.9653 254.207 66.3498 253.602 65.9917C253.021 65.6112 252.204 65.421 251.152 65.421C250.1 65.421 249.272 65.6112 248.667 65.9917C248.063 66.3498 247.627 66.9765 247.358 67.8717C247.284 68.1354 247.221 68.4308 247.169 68.7578Z" fill="#2E2E2E"/>
</svg>
