<svg width="286" height="144" viewBox="0 0 286 144" fill="none" xmlns="http://www.w3.org/2000/svg">
<g opacity="0.8">
<path d="M81.728 65.565L87.0518 70.8887V61.6071L119.356 50.5176L112.767 46.0889L81.728 56.7856V65.565Z" fill="black"/>
<path d="M101.461 64.5069L94.8829 67.4116V94.0889L101.461 97.9105V64.5069Z" fill="black"/>
<path d="M105.542 68.3895L109.451 72.2985V65.4833L133.17 57.3407L128.332 54.0889L105.542 61.9431V68.3895Z" fill="black"/>
<path d="M120.031 67.6125L115.201 69.7453V89.3335L120.031 92.1395V67.6125Z" fill="black"/>
<path d="M140.645 79.0889H138.38V70.2689H135.47V68.3789H143.555V70.2689H140.645V79.0889ZM151.262 74.9789C151.262 76.3389 150.902 77.3889 150.182 78.1289C149.472 78.8689 148.502 79.2389 147.272 79.2389C146.512 79.2389 145.832 79.0739 145.232 78.7439C144.642 78.4139 144.177 77.9339 143.837 77.3039C143.497 76.6639 143.327 75.8889 143.327 74.9789C143.327 73.6189 143.682 72.5739 144.392 71.8439C145.102 71.1139 146.077 70.7489 147.317 70.7489C148.087 70.7489 148.767 70.9139 149.357 71.2439C149.947 71.5739 150.412 72.0539 150.752 72.6839C151.092 73.3039 151.262 74.0689 151.262 74.9789ZM145.607 74.9789C145.607 75.7889 145.737 76.4039 145.997 76.8239C146.267 77.2339 146.702 77.4389 147.302 77.4389C147.892 77.4389 148.317 77.2339 148.577 76.8239C148.847 76.4039 148.982 75.7889 148.982 74.9789C148.982 74.1689 148.847 73.5639 148.577 73.1639C148.317 72.7539 147.887 72.5489 147.287 72.5489C146.697 72.5489 146.267 72.7539 145.997 73.1639C145.737 73.5639 145.607 74.1689 145.607 74.9789ZM157.519 70.7489C158.439 70.7489 159.184 71.1089 159.754 71.8289C160.324 72.5389 160.609 73.5889 160.609 74.9789C160.609 76.3689 160.314 77.4289 159.724 78.1589C159.134 78.8789 158.379 79.2389 157.459 79.2389C156.869 79.2389 156.399 79.1339 156.049 78.9239C155.699 78.7039 155.414 78.4589 155.194 78.1889H155.074C155.154 78.6089 155.194 79.0089 155.194 79.3889V82.6889H152.959V70.8989H154.774L155.089 71.9639H155.194C155.414 71.6339 155.709 71.3489 156.079 71.1089C156.449 70.8689 156.929 70.7489 157.519 70.7489ZM156.799 72.5339C156.219 72.5339 155.809 72.7139 155.569 73.0739C155.339 73.4339 155.214 73.9839 155.194 74.7239V74.9639C155.194 75.7539 155.309 76.3639 155.539 76.7939C155.779 77.2139 156.209 77.4239 156.829 77.4239C157.339 77.4239 157.714 77.2139 157.954 76.7939C158.204 76.3639 158.329 75.7489 158.329 74.9489C158.329 73.3389 157.819 72.5339 156.799 72.5339ZM170.47 79.0889H168.205V70.2689H165.295V68.3789H173.38V70.2689H170.47V79.0889ZM177.022 70.7489C178.152 70.7489 179.047 71.0739 179.707 71.7239C180.367 72.3639 180.697 73.2789 180.697 74.4689V75.5489H175.417C175.437 76.1789 175.622 76.6739 175.972 77.0339C176.332 77.3939 176.827 77.5739 177.457 77.5739C177.987 77.5739 178.467 77.5239 178.897 77.4239C179.327 77.3139 179.772 77.1489 180.232 76.9289V78.6539C179.832 78.8539 179.407 78.9989 178.957 79.0889C178.517 79.1889 177.982 79.2389 177.352 79.2389C176.532 79.2389 175.807 79.0889 175.177 78.7889C174.547 78.4789 174.052 78.0139 173.692 77.3939C173.332 76.7739 173.152 75.9939 173.152 75.0539C173.152 74.0939 173.312 73.2989 173.632 72.6689C173.962 72.0289 174.417 71.5489 174.997 71.2289C175.577 70.9089 176.252 70.7489 177.022 70.7489ZM177.037 72.3389C176.607 72.3389 176.247 72.4789 175.957 72.7589C175.677 73.0389 175.512 73.4739 175.462 74.0639H178.597C178.587 73.5639 178.457 73.1539 178.207 72.8339C177.957 72.5039 177.567 72.3389 177.037 72.3389ZM185.719 70.7339C186.819 70.7339 187.659 70.9739 188.239 71.4539C188.829 71.9239 189.124 72.6489 189.124 73.6289V79.0889H187.564L187.129 77.9789H187.069C186.719 78.4189 186.349 78.7389 185.959 78.9389C185.569 79.1389 185.034 79.2389 184.354 79.2389C183.624 79.2389 183.019 79.0289 182.539 78.6089C182.059 78.1789 181.819 77.5239 181.819 76.6439C181.819 75.7739 182.124 75.1339 182.734 74.7239C183.344 74.3039 184.259 74.0739 185.479 74.0339L186.904 73.9889V73.6289C186.904 73.1989 186.789 72.8839 186.559 72.6839C186.339 72.4839 186.029 72.3839 185.629 72.3839C185.229 72.3839 184.839 72.4439 184.459 72.5639C184.079 72.6739 183.699 72.8139 183.319 72.9839L182.584 71.4689C183.024 71.2389 183.509 71.0589 184.039 70.9289C184.579 70.7989 185.139 70.7339 185.719 70.7339ZM186.034 75.3239C185.314 75.3439 184.814 75.4739 184.534 75.7139C184.254 75.9539 184.114 76.2689 184.114 76.6589C184.114 76.9989 184.214 77.2439 184.414 77.3939C184.614 77.5339 184.874 77.6039 185.194 77.6039C185.674 77.6039 186.079 77.4639 186.409 77.1839C186.739 76.8939 186.904 76.4889 186.904 75.9689V75.2939L186.034 75.3239ZM200.877 70.7489C201.807 70.7489 202.507 70.9889 202.977 71.4689C203.457 71.9389 203.697 72.6989 203.697 73.7489V79.0889H201.462V74.3039C201.462 73.1239 201.052 72.5339 200.232 72.5339C199.642 72.5339 199.222 72.7439 198.972 73.1639C198.722 73.5839 198.597 74.1889 198.597 74.9789V79.0889H196.362V74.3039C196.362 73.1239 195.952 72.5339 195.132 72.5339C194.512 72.5339 194.082 72.7689 193.842 73.2389C193.612 73.6989 193.497 74.3639 193.497 75.2339V79.0889H191.262V70.8989H192.972L193.272 71.9489H193.392C193.642 71.5289 193.982 71.2239 194.412 71.0339C194.852 70.8439 195.307 70.7489 195.777 70.7489C196.377 70.7489 196.887 70.8489 197.307 71.0489C197.727 71.2389 198.047 71.5389 198.267 71.9489H198.462C198.712 71.5289 199.057 71.2239 199.497 71.0339C199.947 70.8439 200.407 70.7489 200.877 70.7489Z" fill="black"/>
<path d="M140.55 89.3358C140.529 89.2451 140.497 89.1118 140.454 88.9358C140.417 88.7544 140.374 88.5624 140.326 88.3598C140.278 88.1518 140.233 87.9624 140.19 87.7918C140.148 87.6158 140.118 87.4878 140.102 87.4078H140.07C140.054 87.4878 140.025 87.6158 139.982 87.7918C139.945 87.9624 139.902 88.1518 139.854 88.3598C139.806 88.5624 139.761 88.7544 139.718 88.9358C139.676 89.1171 139.644 89.2558 139.622 89.3518L139.27 90.8638H137.99L136.75 86.4958H137.934L138.438 88.4318C138.476 88.5651 138.508 88.7251 138.534 88.9118C138.566 89.0984 138.596 89.2798 138.622 89.4558C138.649 89.6264 138.668 89.7624 138.678 89.8638H138.71C138.716 89.7891 138.726 89.6904 138.742 89.5678C138.758 89.4398 138.777 89.3091 138.798 89.1758C138.825 89.0424 138.846 88.9224 138.862 88.8158C138.884 88.7038 138.9 88.6291 138.91 88.5918L139.446 86.4958H140.758L141.27 88.5918C141.292 88.6664 141.316 88.7864 141.342 88.9518C141.374 89.1171 141.401 89.2851 141.422 89.4558C141.449 89.6264 141.462 89.7624 141.462 89.8638H141.494C141.505 89.7731 141.524 89.6424 141.55 89.4718C141.577 89.2958 141.606 89.1118 141.638 88.9198C141.676 88.7278 141.713 88.5651 141.75 88.4318L142.27 86.4958H143.438L142.182 90.8638H140.886L140.55 89.3358ZM144.666 84.7838C144.842 84.7838 144.994 84.8264 145.122 84.9118C145.25 84.9918 145.314 85.1438 145.314 85.3678C145.314 85.5864 145.25 85.7384 145.122 85.8238C144.994 85.9091 144.842 85.9518 144.666 85.9518C144.485 85.9518 144.33 85.9091 144.202 85.8238C144.079 85.7384 144.018 85.5864 144.018 85.3678C144.018 85.1438 144.079 84.9918 144.202 84.9118C144.33 84.8264 144.485 84.7838 144.666 84.7838ZM145.258 86.4958V90.8638H144.066V86.4958H145.258ZM148.903 86.4158C149.373 86.4158 149.749 86.5438 150.031 86.7998C150.314 87.0504 150.455 87.4558 150.455 88.0158V90.8638H149.263V88.3118C149.263 87.9971 149.207 87.7624 149.095 87.6078C148.983 87.4478 148.805 87.3678 148.559 87.3678C148.197 87.3678 147.949 87.4931 147.815 87.7438C147.682 87.9891 147.615 88.3438 147.615 88.8078V90.8638H146.423V86.4958H147.335L147.495 87.0558H147.559C147.698 86.8318 147.887 86.6691 148.127 86.5678C148.373 86.4664 148.631 86.4158 148.903 86.4158ZM152.985 90.9438C152.5 90.9438 152.103 90.7544 151.793 90.3758C151.489 89.9918 151.337 89.4291 151.337 88.6878C151.337 87.9411 151.492 87.3758 151.801 86.9918C152.111 86.6078 152.516 86.4158 153.017 86.4158C153.332 86.4158 153.591 86.4771 153.793 86.5998C153.996 86.7224 154.156 86.8744 154.273 87.0558H154.313C154.297 86.9704 154.279 86.8478 154.257 86.6878C154.236 86.5224 154.225 86.3544 154.225 86.1838V84.7838H155.417V90.8638H154.505L154.273 90.2958H154.225C154.108 90.4771 153.951 90.6318 153.753 90.7598C153.556 90.8824 153.3 90.9438 152.985 90.9438ZM153.401 89.9918C153.732 89.9918 153.964 89.8958 154.097 89.7038C154.231 89.5064 154.3 89.2131 154.305 88.8238V88.6958C154.305 88.2691 154.239 87.9438 154.105 87.7198C153.977 87.4958 153.737 87.3838 153.385 87.3838C153.124 87.3838 152.919 87.4984 152.769 87.7278C152.62 87.9518 152.545 88.2771 152.545 88.7038C152.545 89.1304 152.62 89.4531 152.769 89.6718C152.919 89.8851 153.129 89.9918 153.401 89.9918ZM160.552 88.6718C160.552 89.3971 160.36 89.9571 159.976 90.3518C159.597 90.7464 159.08 90.9438 158.424 90.9438C158.018 90.9438 157.656 90.8558 157.336 90.6798C157.021 90.5038 156.773 90.2478 156.592 89.9118C156.41 89.5704 156.32 89.1571 156.32 88.6718C156.32 87.9464 156.509 87.3891 156.888 86.9998C157.266 86.6104 157.786 86.4158 158.448 86.4158C158.858 86.4158 159.221 86.5038 159.536 86.6798C159.85 86.8558 160.098 87.1118 160.28 87.4478C160.461 87.7784 160.552 88.1864 160.552 88.6718ZM157.536 88.6718C157.536 89.1038 157.605 89.4318 157.744 89.6558C157.888 89.8744 158.12 89.9838 158.44 89.9838C158.754 89.9838 158.981 89.8744 159.12 89.6558C159.264 89.4318 159.336 89.1038 159.336 88.6718C159.336 88.2398 159.264 87.9171 159.12 87.7038C158.981 87.4851 158.752 87.3758 158.432 87.3758C158.117 87.3758 157.888 87.4851 157.744 87.7038C157.605 87.9171 157.536 88.2398 157.536 88.6718ZM164.557 89.3358C164.535 89.2451 164.503 89.1118 164.461 88.9358C164.423 88.7544 164.381 88.5624 164.333 88.3598C164.285 88.1518 164.239 87.9624 164.197 87.7918C164.154 87.6158 164.125 87.4878 164.109 87.4078H164.077C164.061 87.4878 164.031 87.6158 163.989 87.7918C163.951 87.9624 163.909 88.1518 163.861 88.3598C163.813 88.5624 163.767 88.7544 163.725 88.9358C163.682 89.1171 163.65 89.2558 163.629 89.3518L163.277 90.8638H161.997L160.757 86.4958H161.941L162.445 88.4318C162.482 88.5651 162.514 88.7251 162.541 88.9118C162.573 89.0984 162.602 89.2798 162.629 89.4558C162.655 89.6264 162.674 89.7624 162.685 89.8638H162.717C162.722 89.7891 162.733 89.6904 162.749 89.5678C162.765 89.4398 162.783 89.3091 162.805 89.1758C162.831 89.0424 162.853 88.9224 162.869 88.8158C162.89 88.7038 162.906 88.6291 162.917 88.5918L163.453 86.4958H164.765L165.277 88.5918C165.298 88.6664 165.322 88.7864 165.349 88.9518C165.381 89.1171 165.407 89.2851 165.429 89.4558C165.455 89.6264 165.469 89.7624 165.469 89.8638H165.501C165.511 89.7731 165.53 89.6424 165.557 89.4718C165.583 89.2958 165.613 89.1118 165.645 88.9198C165.682 88.7278 165.719 88.5651 165.757 88.4318L166.277 86.4958H167.445L166.189 90.8638H164.893L164.557 89.3358ZM171.909 90.9438C171.258 90.9438 170.754 90.7651 170.397 90.4078C170.045 90.0451 169.869 89.4771 169.869 88.7038C169.869 88.1704 169.96 87.7358 170.141 87.3998C170.322 87.0638 170.573 86.8158 170.893 86.6558C171.218 86.4958 171.592 86.4158 172.013 86.4158C172.312 86.4158 172.57 86.4451 172.789 86.5038C173.013 86.5624 173.208 86.6318 173.373 86.7118L173.021 87.6318C172.834 87.5571 172.658 87.4958 172.493 87.4478C172.333 87.3998 172.173 87.3758 172.013 87.3758C171.394 87.3758 171.085 87.8158 171.085 88.6958C171.085 89.1331 171.165 89.4558 171.325 89.6638C171.49 89.8718 171.72 89.9758 172.013 89.9758C172.264 89.9758 172.485 89.9438 172.677 89.8798C172.869 89.8104 173.056 89.7171 173.237 89.5998V90.6158C173.056 90.7331 172.864 90.8158 172.661 90.8638C172.464 90.9171 172.213 90.9438 171.909 90.9438ZM175.354 90.8638H174.162V84.7838H175.354V90.8638ZM178.32 86.4158C178.922 86.4158 179.4 86.5891 179.752 86.9358C180.104 87.2771 180.28 87.7651 180.28 88.3998V88.9758H177.464C177.474 89.3118 177.573 89.5758 177.76 89.7678C177.952 89.9598 178.216 90.0558 178.552 90.0558C178.834 90.0558 179.09 90.0291 179.32 89.9758C179.549 89.9171 179.786 89.8291 180.032 89.7118V90.6318C179.818 90.7384 179.592 90.8158 179.352 90.8638C179.117 90.9171 178.832 90.9438 178.496 90.9438C178.058 90.9438 177.672 90.8638 177.336 90.7038C177 90.5384 176.736 90.2904 176.544 89.9598C176.352 89.6291 176.256 89.2131 176.256 88.7118C176.256 88.1998 176.341 87.7758 176.512 87.4398C176.688 87.0984 176.93 86.8424 177.24 86.6718C177.549 86.5011 177.909 86.4158 178.32 86.4158ZM178.328 87.2638C178.098 87.2638 177.906 87.3384 177.752 87.4878C177.602 87.6371 177.514 87.8691 177.488 88.1838H179.16C179.154 87.9171 179.085 87.6984 178.952 87.5278C178.818 87.3518 178.61 87.2638 178.328 87.2638ZM182.958 86.4078C183.545 86.4078 183.993 86.5358 184.302 86.7918C184.617 87.0424 184.774 87.4291 184.774 87.9518V90.8638H183.942L183.71 90.2718H183.678C183.492 90.5064 183.294 90.6771 183.086 90.7838C182.878 90.8904 182.593 90.9438 182.23 90.9438C181.841 90.9438 181.518 90.8318 181.262 90.6078C181.006 90.3784 180.878 90.0291 180.878 89.5598C180.878 89.0958 181.041 88.7544 181.366 88.5358C181.692 88.3118 182.18 88.1891 182.83 88.1678L183.59 88.1438V87.9518C183.59 87.7224 183.529 87.5544 183.406 87.4478C183.289 87.3411 183.124 87.2878 182.91 87.2878C182.697 87.2878 182.489 87.3198 182.286 87.3838C182.084 87.4424 181.881 87.5171 181.678 87.6078L181.286 86.7998C181.521 86.6771 181.78 86.5811 182.062 86.5118C182.35 86.4424 182.649 86.4078 182.958 86.4078ZM183.126 88.8558C182.742 88.8664 182.476 88.9358 182.326 89.0638C182.177 89.1918 182.102 89.3598 182.102 89.5678C182.102 89.7491 182.156 89.8798 182.262 89.9598C182.369 90.0344 182.508 90.0718 182.678 90.0718C182.934 90.0718 183.15 89.9971 183.326 89.8478C183.502 89.6931 183.59 89.4771 183.59 89.1998V88.8398L183.126 88.8558ZM188.394 86.4158C188.864 86.4158 189.24 86.5438 189.522 86.7998C189.805 87.0504 189.946 87.4558 189.946 88.0158V90.8638H188.754V88.3118C188.754 87.9971 188.698 87.7624 188.586 87.6078C188.474 87.4478 188.296 87.3678 188.05 87.3678C187.688 87.3678 187.44 87.4931 187.306 87.7438C187.173 87.9891 187.106 88.3438 187.106 88.8078V90.8638H185.914V86.4958H186.826L186.986 87.0558H187.05C187.189 86.8318 187.378 86.6691 187.618 86.5678C187.864 86.4664 188.122 86.4158 188.394 86.4158ZM191.692 84.7838C191.868 84.7838 192.02 84.8264 192.148 84.9118C192.276 84.9918 192.34 85.1438 192.34 85.3678C192.34 85.5864 192.276 85.7384 192.148 85.8238C192.02 85.9091 191.868 85.9518 191.692 85.9518C191.511 85.9518 191.356 85.9091 191.228 85.8238C191.106 85.7384 191.044 85.5864 191.044 85.3678C191.044 85.1438 191.106 84.9918 191.228 84.9118C191.356 84.8264 191.511 84.7838 191.692 84.7838ZM192.284 86.4958V90.8638H191.092V86.4958H192.284ZM195.93 86.4158C196.399 86.4158 196.775 86.5438 197.058 86.7998C197.34 87.0504 197.482 87.4558 197.482 88.0158V90.8638H196.29V88.3118C196.29 87.9971 196.234 87.7624 196.122 87.6078C196.01 87.4478 195.831 87.3678 195.586 87.3678C195.223 87.3678 194.975 87.4931 194.842 87.7438C194.708 87.9891 194.642 88.3438 194.642 88.8078V90.8638H193.45V86.4958H194.362L194.522 87.0558H194.586C194.724 86.8318 194.914 86.6691 195.154 86.5678C195.399 86.4664 195.658 86.4158 195.93 86.4158ZM200.044 86.4158C200.582 86.4158 201.004 86.6291 201.308 87.0558H201.34L201.436 86.4958H202.444V90.8718C202.444 91.4958 202.26 91.9704 201.892 92.2958C201.524 92.6211 200.98 92.7838 200.26 92.7838C199.95 92.7838 199.662 92.7651 199.396 92.7278C199.134 92.6904 198.878 92.6238 198.628 92.5278V91.5758C199.166 91.7998 199.734 91.9118 200.332 91.9118C200.945 91.9118 201.252 91.5811 201.252 90.9198V90.8318C201.252 90.7411 201.254 90.6478 201.26 90.5518C201.27 90.4558 201.278 90.3704 201.284 90.2958H201.252C201.102 90.5251 200.924 90.6904 200.716 90.7918C200.508 90.8931 200.273 90.9438 200.012 90.9438C199.494 90.9438 199.089 90.7464 198.796 90.3518C198.508 89.9518 198.364 89.3971 198.364 88.6878C198.364 87.9731 198.513 87.4158 198.812 87.0158C199.11 86.6158 199.521 86.4158 200.044 86.4158ZM200.42 87.3838C199.86 87.3838 199.58 87.8238 199.58 88.7038C199.58 89.5731 199.865 90.0078 200.436 90.0078C200.74 90.0078 200.964 89.9224 201.108 89.7518C201.257 89.5758 201.332 89.2718 201.332 88.8398V88.6958C201.332 88.2264 201.26 87.8904 201.116 87.6878C200.972 87.4851 200.74 87.3838 200.42 87.3838Z" fill="black"/>
</g>
</svg>
