<svg width="148" height="26" viewBox="0 0 148 26" fill="none" xmlns="http://www.w3.org/2000/svg">
<path d="M66.2096 21.8423H65.5278V25.5923H66.2096V21.8423Z" fill="white"/>
<path d="M62.6428 25.1286C62.5014 25.2823 62.3274 25.3984 62.121 25.477C61.9163 25.5539 61.6916 25.5923 61.4468 25.5923C61.0291 25.5923 60.7044 25.4628 60.4731 25.2038C60.2417 24.9431 60.1227 24.5646 60.116 24.0683V23.4115C60.116 22.9085 60.2251 22.5216 60.4431 22.2509C60.6628 21.9785 60.9824 21.8423 61.4019 21.8423C61.7964 21.8423 62.0935 21.94 62.2934 22.1355C62.4947 22.3311 62.6112 22.6377 62.6428 23.0555H61.9287C61.9088 22.8232 61.8605 22.6653 61.7839 22.5818C61.7073 22.4965 61.5875 22.4539 61.4243 22.4539C61.2263 22.4539 61.0823 22.5266 60.9924 22.672C60.9025 22.8174 60.8559 23.0488 60.8526 23.3664V24.0281C60.8526 24.3607 60.9017 24.603 60.9999 24.7551C61.0998 24.9055 61.263 24.9807 61.4893 24.9807C61.6341 24.9807 61.7515 24.9515 61.8414 24.893L61.9062 24.8479V24.1786H61.3919V23.6221H62.6428V25.1286Z" fill="white"/>
<path d="M58.7777 25.5923H58.0436L56.9699 23.1327V25.5923H56.2358V21.8423H56.9699L58.0461 24.3045V21.8423H58.7777V25.5923Z" fill="white"/>
<path d="M55.0923 25.5923H54.3582V21.8423H55.0923V25.5923Z" fill="white"/>
<path d="M32.428 24.0457C32.428 24.5354 32.3124 24.9156 32.0809 25.1862C31.8512 25.457 31.5316 25.5923 31.1221 25.5923C30.7144 25.5923 30.3939 25.4586 30.1609 25.1912C29.9278 24.9222 29.8096 24.5462 29.8063 24.0632V23.4391C29.8063 22.9377 29.9219 22.5466 30.1534 22.2659C30.3847 21.9835 30.706 21.8423 31.1172 21.8423C31.5217 21.8423 31.8404 21.981 32.0735 22.2584C32.3065 22.5341 32.4247 22.9218 32.428 23.4215V24.0457ZM31.6915 23.4341C31.6915 23.1049 31.6448 22.86 31.5517 22.6996C31.4584 22.5391 31.3136 22.4589 31.1172 22.4589C30.9224 22.4589 30.7784 22.5367 30.6852 22.692C30.5919 22.8458 30.5437 23.0806 30.5404 23.3965V24.0457C30.5404 24.3649 30.5878 24.6005 30.6826 24.7526C30.7776 24.903 30.9241 24.9782 31.1221 24.9782C31.3136 24.9782 31.4559 24.9047 31.5491 24.7576C31.6424 24.6089 31.6897 24.3791 31.6915 24.0683V23.4341Z" fill="white"/>
<path d="M28.8671 24.3264C28.8488 24.7425 28.7322 25.0576 28.5175 25.2714C28.3027 25.4854 27.9998 25.5923 27.6086 25.5923C27.1975 25.5923 26.882 25.457 26.6623 25.1862C26.4442 24.9138 26.3352 24.5261 26.3352 24.0231V23.409C26.3352 22.9076 26.4483 22.5216 26.6748 22.2509C26.9012 21.9785 27.2158 21.8423 27.6186 21.8423C28.0147 21.8423 28.3152 21.9534 28.52 22.1757C28.7263 22.398 28.8438 22.7172 28.872 23.1332H28.1354C28.1288 22.8759 28.0889 22.6988 28.0155 22.6019C27.944 22.5032 27.8117 22.4539 27.6186 22.4539C27.4222 22.4539 27.2832 22.5233 27.2016 22.6619C27.12 22.799 27.0768 23.0254 27.0718 23.3413V24.0307C27.0718 24.3932 27.1117 24.6423 27.1916 24.7777C27.2731 24.913 27.4121 24.9807 27.6086 24.9807C27.8017 24.9807 27.9349 24.9339 28.0081 24.8403C28.0813 24.7451 28.1229 24.5737 28.133 24.3264H28.8671Z" fill="white"/>
<path d="M49.9825 24.3264C49.9642 24.7425 49.8476 25.0576 49.6329 25.2714C49.4181 25.4854 49.1152 25.5923 48.724 25.5923C48.3129 25.5923 47.9974 25.457 47.7777 25.1862C47.5596 24.9138 47.4506 24.5261 47.4506 24.0231V23.409C47.4506 22.9076 47.5637 22.5216 47.7902 22.2509C48.0166 21.9785 48.3312 21.8423 48.734 21.8423C49.1301 21.8423 49.4306 21.9534 49.6354 22.1757C49.8418 22.398 49.9592 22.7172 49.9874 23.1332H49.2508C49.2442 22.8759 49.2043 22.6988 49.131 22.6019C49.0594 22.5032 48.9271 22.4539 48.734 22.4539C48.5376 22.4539 48.3986 22.5233 48.317 22.6619C48.2355 22.799 48.1922 23.0254 48.1872 23.3413V24.0307C48.1872 24.3932 48.2271 24.6423 48.3071 24.7777C48.3886 24.913 48.5276 24.9807 48.724 24.9807C48.9171 24.9807 49.0503 24.9339 49.1235 24.8403C49.1967 24.7451 49.2383 24.5737 49.2484 24.3264H49.9825Z" fill="white"/>
<path d="M38.9511 22.4734H39.85V21.8423H37.3306V22.4734H38.2145V25.5923H38.9511V22.4734Z" fill="white"/>
<path d="M52.4517 22.4734H53.3506V21.8423H50.8312V22.4734H51.715V25.5923H52.4517V22.4734Z" fill="white"/>
<path d="M35.5131 25.5923H36.2472V21.8423H35.5155V24.3045L34.4394 21.8423H33.7053V25.5923H34.4394V23.1327L35.5131 25.5923Z" fill="white"/>
<path d="M19.9106 24.8248H18.9093L18.7145 25.5923H17.938L19.0741 21.8423H19.7457L20.8893 25.5923H20.1053L19.9106 24.8248ZM19.0691 24.1938H19.7483L19.4086 22.857L19.0691 24.1938Z" fill="white"/>
<path d="M45.8981 24.8248H44.8968L44.702 25.5923H43.9255L45.0616 21.8423H45.7332L46.8768 25.5923H46.0928L45.8981 24.8248ZM45.0566 24.1938H45.7358L45.3961 22.857L45.0566 24.1938Z" fill="white"/>
<path d="M23.656 24.9639H22.3676V21.8423H21.6335V25.5923H23.656V24.9639Z" fill="white"/>
<path d="M15.9654 24.2221H15.6008V25.5923H14.8668V21.8423H16.0378C16.4057 21.8423 16.6895 21.941 16.8893 22.1385C17.0907 22.3342 17.1914 22.6132 17.1914 22.9756C17.1914 23.4735 17.0158 23.8221 16.6646 24.0213L17.3012 25.5562V25.5923H16.5123L15.9654 24.2221ZM15.6008 23.5911H16.0179C16.1644 23.5911 16.2742 23.5413 16.3474 23.4417C16.4207 23.3404 16.4573 23.2057 16.4573 23.0373C16.4573 22.6613 16.315 22.4734 16.0304 22.4734H15.6008V23.5911Z" fill="white"/>
<path d="M41.8219 24.2221H41.4573V25.5923H40.7233V21.8423H41.8944C42.2622 21.8423 42.546 21.941 42.7458 22.1385C42.9472 22.3342 43.0479 22.6132 43.0479 22.9756C43.0479 23.4735 42.8723 23.8221 42.5211 24.0213L43.1577 25.5562V25.5923H42.3688L41.8219 24.2221ZM41.4573 23.5911H41.8744C42.0209 23.5911 42.1307 23.5413 42.2039 23.4417C42.2772 23.3404 42.3138 23.2057 42.3138 23.0373C42.3138 22.6613 42.1715 22.4734 41.8869 22.4734H41.4573V23.5911Z" fill="white"/>
<path d="M3.15204 25.1286C3.01055 25.2823 2.8366 25.3984 2.63019 25.477C2.42545 25.5539 2.20073 25.5923 1.95603 25.5923C1.53821 25.5923 1.21362 25.4628 0.982238 25.2038C0.750866 24.9431 0.631841 24.5646 0.625183 24.0683V23.4115C0.625183 22.9085 0.734216 22.5216 0.952282 22.2509C1.172 21.9785 1.49161 21.8423 1.91109 21.8423C2.3056 21.8423 2.60273 21.94 2.80248 22.1355C3.00389 22.3311 3.12041 22.6377 3.15204 23.0555H2.43793C2.41795 22.8232 2.36968 22.6653 2.29311 22.5818C2.21654 22.4965 2.09668 22.4539 1.93356 22.4539C1.73547 22.4539 1.59149 22.5266 1.50159 22.672C1.4117 22.8174 1.3651 23.0488 1.36177 23.3664V24.0281C1.36177 24.3607 1.41087 24.603 1.50909 24.7551C1.60896 24.9055 1.77209 24.9807 1.99847 24.9807C2.1433 24.9807 2.26065 24.9515 2.35053 24.893L2.41546 24.8479V24.1786H1.9011V23.6221H3.15204V25.1286Z" fill="white"/>
<path d="M5.07728 23.9697H6.22086V23.3593H5.07728V22.4734H6.42561V21.8423H4.3432V25.5923H6.4306V24.9639H5.07728V23.9697Z" fill="white"/>
<path d="M12.2441 23.9697H13.3877V23.3593H12.2441V22.4734H13.5924V21.8423H11.5101V25.5923H13.5975V24.9639H12.2441V23.9697Z" fill="white"/>
<path d="M81.4601 24.5846C81.4601 24.4359 81.4219 24.3239 81.3453 24.2488C81.2704 24.1719 81.133 24.0925 80.9333 24.0106C80.5688 23.8719 80.3066 23.7098 80.1468 23.5243C79.987 23.3371 79.9071 23.1166 79.9071 22.8626C79.9071 22.5551 80.0153 22.3085 80.2317 22.123C80.4498 21.9359 80.7261 21.8423 81.0606 21.8423C81.2837 21.8423 81.4826 21.8899 81.6574 21.9852C81.8322 22.0787 81.9662 22.2116 82.0594 22.3837C82.1543 22.5559 82.2017 22.7514 82.2017 22.9703H81.4701C81.4701 22.7998 81.4335 22.6704 81.3603 22.5818C81.2887 22.4915 81.1847 22.4464 81.0482 22.4464C80.92 22.4464 80.8201 22.4848 80.7485 22.5617C80.677 22.6369 80.6412 22.7388 80.6412 22.8675C80.6412 22.9678 80.6811 23.0589 80.761 23.1408C80.8409 23.221 80.9824 23.3046 81.1855 23.3914C81.5401 23.5201 81.7972 23.678 81.9571 23.8652C82.1185 24.0524 82.1992 24.2905 82.1992 24.5796C82.1992 24.8972 82.0985 25.1453 81.8971 25.3241C81.6956 25.503 81.4219 25.5923 81.0757 25.5923C80.8409 25.5923 80.627 25.5438 80.4339 25.4469C80.2408 25.35 80.0893 25.2114 79.9795 25.0309C79.8713 24.8504 79.8172 24.6373 79.8172 24.3916H80.5538C80.5538 24.6022 80.5946 24.7551 80.6761 24.8504C80.7577 24.9456 80.8909 24.9933 81.0757 24.9933C81.332 24.9933 81.4601 24.857 81.4601 24.5846Z" fill="white"/>
<path d="M92.5469 24.4033V21.8423H91.8127V24.4007C91.8111 24.604 91.7778 24.7505 91.7129 24.8403C91.648 24.9283 91.5281 24.9724 91.3533 24.9724C91.1785 24.9724 91.0579 24.9275 90.9913 24.8378C90.9247 24.748 90.8914 24.598 90.8914 24.388V21.8423H90.1523V24.3855C90.1523 24.7768 90.2547 25.0757 90.4595 25.2824C90.6659 25.489 90.9638 25.5923 91.3533 25.5923C91.7361 25.5923 92.03 25.4907 92.2347 25.2875C92.4395 25.0825 92.5435 24.7877 92.5469 24.4033Z" fill="white"/>
<path d="M135.393 24.5543L134.706 21.8423H133.747V25.5923H134.482V24.5775L134.414 23.0142L135.14 25.5923H135.639L136.367 23.0142L136.299 24.5775V25.5923H137.036V21.8423H136.077L135.393 24.5543Z" fill="white"/>
<path d="M113.43 24.5543L112.743 21.8423H111.785V25.5923H112.519V24.5775L112.452 23.0142L113.178 25.5923H113.677L114.404 23.0142L114.337 24.5775V25.5923H115.073V21.8423H114.115L113.43 24.5543Z" fill="white"/>
<path d="M108.771 25.5923H108.037L106.964 23.1327V25.5923H106.23V21.8423H106.964L108.04 24.3045V21.8423H108.771V25.5923Z" fill="white"/>
<path d="M101.382 25.5923H100.648V21.8423H101.382V25.5923Z" fill="white"/>
<path d="M74.9263 24.0457C74.9263 24.5354 74.8107 24.9156 74.5792 25.1862C74.3495 25.457 74.0299 25.5923 73.6204 25.5923C73.2126 25.5923 72.8922 25.4586 72.6591 25.1912C72.4261 24.9222 72.3079 24.5462 72.3046 24.0632V23.4391C72.3046 22.9377 72.4202 22.5466 72.6517 22.2659C72.883 21.9835 73.2043 21.8423 73.6155 21.8423C74.02 21.8423 74.3387 21.981 74.5717 22.2584C74.8048 22.5341 74.923 22.9218 74.9263 23.4215V24.0457ZM74.1898 23.4341C74.1898 23.1049 74.1431 22.86 74.05 22.6996C73.9567 22.5391 73.8119 22.4589 73.6155 22.4589C73.4207 22.4589 73.2767 22.5367 73.1835 22.692C73.0902 22.8458 73.042 23.0806 73.0387 23.3965V24.0457C73.0387 24.3649 73.0861 24.6005 73.1809 24.7526C73.2758 24.903 73.4224 24.9782 73.6204 24.9782C73.8119 24.9782 73.9542 24.9047 74.0474 24.7576C74.1407 24.6089 74.188 24.3791 74.1898 24.0683V23.4341Z" fill="white"/>
<path d="M104.982 24.0457C104.982 24.5354 104.867 24.9156 104.635 25.1862C104.405 25.457 104.086 25.5923 103.676 25.5923C103.269 25.5923 102.948 25.4586 102.715 25.1912C102.482 24.9222 102.364 24.5462 102.36 24.0632V23.4391C102.36 22.9377 102.476 22.5466 102.708 22.2659C102.939 21.9835 103.26 21.8423 103.671 21.8423C104.076 21.8423 104.395 21.981 104.628 22.2584C104.861 22.5341 104.979 22.9218 104.982 23.4215V24.0457ZM104.246 23.4341C104.246 23.1049 104.199 22.86 104.106 22.6996C104.013 22.5391 103.868 22.4589 103.671 22.4589C103.477 22.4589 103.333 22.5367 103.239 22.692C103.146 22.8458 103.098 23.0806 103.095 23.3965V24.0457C103.095 24.3649 103.142 24.6005 103.237 24.7526C103.332 24.903 103.478 24.9782 103.676 24.9782C103.868 24.9782 104.01 24.9047 104.103 24.7576C104.197 24.6089 104.244 24.3791 104.246 24.0683V23.4341Z" fill="white"/>
<path d="M71.2502 24.3264C71.2319 24.7425 71.1153 25.0576 70.9007 25.2714C70.6859 25.4854 70.383 25.5923 69.9918 25.5923C69.5806 25.5923 69.2651 25.457 69.0455 25.1862C68.8274 24.9138 68.7184 24.5261 68.7184 24.0231V23.409C68.7184 22.9076 68.8315 22.5216 69.0579 22.2509C69.2844 21.9785 69.599 21.8423 70.0018 21.8423C70.3979 21.8423 70.6984 21.9534 70.9031 22.1757C71.1095 22.398 71.2269 22.7172 71.2552 23.1332H70.5186C70.5119 22.8759 70.4721 22.6988 70.3987 22.6019C70.3271 22.5032 70.1949 22.4539 70.0018 22.4539C69.8053 22.4539 69.6663 22.5233 69.5847 22.6619C69.5032 22.799 69.46 23.0254 69.455 23.3413V24.0307C69.455 24.3932 69.4948 24.6423 69.5748 24.7777C69.6563 24.913 69.7953 24.9807 69.9918 24.9807C70.1849 24.9807 70.318 24.9339 70.3913 24.8403C70.4645 24.7451 70.5061 24.5737 70.5161 24.3264H71.2502Z" fill="white"/>
<path d="M96.122 24.3264C96.1036 24.7425 95.9871 25.0576 95.7724 25.2714C95.5576 25.4854 95.2547 25.5923 94.8635 25.5923C94.4524 25.5923 94.1368 25.457 93.9172 25.1862C93.6991 24.9138 93.5901 24.5261 93.5901 24.0231V23.409C93.5901 22.9076 93.7032 22.5216 93.9296 22.2509C94.1561 21.9785 94.4707 21.8423 94.8735 21.8423C95.2696 21.8423 95.5701 21.9534 95.7748 22.1757C95.9812 22.398 96.0986 22.7172 96.1269 23.1332H95.3903C95.3836 22.8759 95.3438 22.6988 95.2704 22.6019C95.1988 22.5032 95.0666 22.4539 94.8735 22.4539C94.677 22.4539 94.5381 22.5233 94.4564 22.6619C94.3749 22.799 94.3317 23.0254 94.3267 23.3413V24.0307C94.3267 24.3932 94.3665 24.6423 94.4465 24.7777C94.528 24.913 94.667 24.9807 94.8635 24.9807C95.0566 24.9807 95.1897 24.9339 95.263 24.8403C95.3362 24.7451 95.3778 24.5737 95.3878 24.3264H96.122Z" fill="white"/>
<path d="M84.8588 22.4734H85.7577V21.8423H83.2383V22.4734H84.1221V25.5923H84.8588V22.4734Z" fill="white"/>
<path d="M146.632 22.4734H147.531V21.8423H145.011V22.4734H145.895V25.5923H146.632V22.4734Z" fill="white"/>
<path d="M98.7482 22.4734H99.6471V21.8423H97.1277V22.4734H98.0115V25.5923H98.7482V22.4734Z" fill="white"/>
<path d="M78.1507 25.5923H78.8848V21.8423H78.1531V24.3045L77.077 21.8423H76.3429V25.5923H77.077V23.1327L78.1507 25.5923Z" fill="white"/>
<path d="M143.276 25.5923H144.01V21.8423H143.278V24.3045L142.202 21.8423H141.468V25.5923H142.202V23.1327L143.276 25.5923Z" fill="white"/>
<path d="M121.529 25.5923H122.263V21.8423H121.532V24.3045L120.456 21.8423H119.722V25.5923H120.456V23.1327L121.529 25.5923Z" fill="white"/>
<path d="M117.866 24.8248H116.865L116.67 25.5923H115.894L117.03 21.8423H117.701L118.845 25.5923H118.061L117.866 24.8248ZM117.025 24.1937H117.704L117.364 22.857L117.025 24.1937Z" fill="white"/>
<path d="M125.162 24.8248H124.161L123.966 25.5923H123.189L124.325 21.8423H124.997L126.141 25.5923H125.357L125.162 24.8248ZM124.32 24.1937H124.999L124.66 22.857L124.32 24.1937Z" fill="white"/>
<path d="M87.8932 24.2221H87.5286V25.5923H86.7946V21.8423H87.9656C88.3335 21.8423 88.6173 21.941 88.817 22.1385C89.0185 22.3342 89.1191 22.6132 89.1191 22.9756C89.1191 23.4735 88.9435 23.8221 88.5923 24.0213L89.229 25.5562V25.5923H88.44L87.8932 24.2221ZM87.5286 23.5911H87.9456C88.0921 23.5911 88.2019 23.5413 88.2752 23.4417C88.3484 23.3404 88.385 23.2057 88.385 23.0373C88.385 22.6613 88.2427 22.4734 87.9581 22.4734H87.5286V23.5911Z" fill="white"/>
<path d="M129.488 25.1286C129.347 25.2823 129.173 25.3984 128.966 25.477C128.762 25.5539 128.537 25.5923 128.292 25.5923C127.874 25.5923 127.55 25.4628 127.318 25.2038C127.087 24.9431 126.968 24.5646 126.961 24.0683V23.4115C126.961 22.9085 127.07 22.5216 127.288 22.2509C127.508 21.9785 127.828 21.8423 128.247 21.8423C128.642 21.8423 128.939 21.94 129.139 22.1355C129.34 22.3311 129.456 22.6377 129.488 23.0555H128.774C128.754 22.8232 128.706 22.6653 128.629 22.5818C128.553 22.4965 128.433 22.4539 128.27 22.4539C128.072 22.4539 127.928 22.5266 127.838 22.672C127.748 22.8174 127.701 23.0488 127.698 23.3664V24.0281C127.698 24.3607 127.747 24.603 127.845 24.7551C127.945 24.9055 128.108 24.9807 128.335 24.9807C128.479 24.9807 128.597 24.9515 128.687 24.893L128.752 24.8479V24.1786H128.237V23.6221H129.488V25.1286Z" fill="white"/>
<path d="M131.393 23.9697H132.536V23.3593H131.393V22.4734H132.741V21.8423H130.659V25.5923H132.746V24.9639H131.393V23.9697Z" fill="white"/>
<path d="M138.942 23.9697H140.086V23.3593H138.942V22.4734H140.29V21.8423H138.208V25.5923H140.295V24.9639H138.942V23.9697Z" fill="white"/>
<path d="M9.50712 25.5923H10.2412V21.8423H9.50968V24.3045L8.43349 21.8423H7.6994V25.5923H8.43349V23.1327L9.50712 25.5923Z" fill="white"/>
<path d="M129.208 9.78464H127.861V17.4126H125.147V0.367188H129.476C130.836 0.367188 131.885 0.815958 132.623 1.7135C133.368 2.60322 133.74 3.87145 133.74 5.5183C133.74 7.78165 133.091 8.87939 131.792 9.78464L134.146 17.2488V17.4126H131.23L129.208 9.78464ZM127.861 7.70344H129.402C129.943 7.70344 130.349 7.47702 130.621 7.02439C130.891 6.56395 131.027 5.9512 131.027 5.18636C131.027 3.47718 130.501 2.62248 129.448 2.62248H127.861V7.70344Z" fill="white"/>
<path d="M118.768 9.58706H115.561V15.3626H119.889V17.4126H113.213V0.367188H119.873V2.44766H115.561V7.67522H118.768V9.58706Z" fill="white"/>
<path d="M98.9868 17.4126V0.367188H102.489C104.036 0.367188 105.267 0.999323 106.182 2.2637C107.104 3.52807 107.575 5.26071 107.593 7.46162V10.2245C107.593 12.4645 107.132 14.2244 106.21 15.5045C105.295 16.7765 104.029 17.4126 102.416 17.4126H98.9868ZM101.579 3.15298V14.4738H102.379C103.271 14.4738 103.899 14.1732 104.263 13.5723C104.627 12.9636 104.9 12.0001 104.918 10.5172V7.55533C104.918 5.96311 104.663 4.77251 104.317 4.14809C103.971 3.51595 103.383 3.18425 102.552 3.15298H101.579Z" fill="white"/>
<path d="M89.853 15.325H94.1588V17.4126H87.3997V0.367188H89.853V15.325Z" fill="white"/>
<path d="M81.386 17.4126H78.8627V0.367188H81.386V17.4126Z" fill="white"/>
<path d="M72.8633 0.367188V12.008C72.8499 13.7556 72.4287 15.0953 71.5999 16.0269C70.7712 16.9507 69.582 17.4126 68.0323 17.4126C66.4556 17.4126 65.2495 16.943 64.4141 16.0037C63.5854 15.0645 63.171 13.7057 63.171 11.9272V0.367188H66.1625V12.3397C66.1625 13.2944 66.2973 13.9758 66.5668 14.3838C66.8363 14.7919 67.3248 14.9959 68.0323 14.9959C68.7398 14.9959 69.2249 14.7957 69.4877 14.3953C69.7504 13.9873 69.8852 13.3214 69.8919 12.3974V0.367188H72.8633Z" fill="white"/>
<path d="M48.8827 17.4126V0.367188H53.0894C54.5103 0.367188 55.5885 0.76519 56.3239 1.5613C57.0655 2.34959 57.4363 3.50858 57.4363 5.03826C57.4363 5.90463 57.2836 6.64997 56.9782 7.27429C56.6729 7.89871 56.2553 8.3553 55.7256 8.64405C56.3364 8.86255 56.8068 9.30361 57.1371 9.96691C57.4674 10.6226 57.6327 11.4342 57.6327 12.4021C57.6327 14.0566 57.2681 15.3054 56.5389 16.1483C55.816 16.9912 54.7658 17.4126 53.3885 17.4126H48.8827ZM51.6311 10.002V14.5561H53.3885C53.8809 14.5561 54.2548 14.365 54.5103 13.9825C54.7658 13.6 54.8936 13.0576 54.8936 12.3552C54.8936 10.8255 54.4512 10.0411 53.5662 10.002H51.6311ZM51.6311 7.49675H53.0614C54.1395 7.49675 54.6786 6.79821 54.6786 5.40123C54.6786 4.62858 54.554 4.07442 54.3047 3.73875C54.0554 3.40319 53.6503 3.23536 53.0894 3.23536H51.6311V7.49675Z" fill="white"/>
<path d="M32.2074 15.0853H36.4216V17.4126H29.8063V0.367188H32.2074V15.0853Z" fill="white"/>
<path d="M23.7451 17.4126H21.1972V9.69997H17.4233V17.4126H14.8668V0.367188H17.4233V7.6608H21.1972V0.367188H23.7451V17.4126Z" fill="white"/>
<path d="M1.81836 16.2842C2.59791 17.0638 3.61609 17.4536 4.87291 17.4536C6.12973 17.4536 7.14791 17.0558 7.92746 16.2604C8.707 15.449 9.09678 14.3751 9.09678 13.0388C9.09678 12.307 8.96155 11.6786 8.69109 11.1536C8.43655 10.6126 8.06268 10.1195 7.5695 9.674C7.09223 9.22855 6.37632 8.64787 5.42177 7.93196C4.4195 7.20014 3.74336 6.61946 3.39336 6.18991C3.04337 5.74446 2.86836 5.20355 2.86836 4.56719C2.86836 3.86719 3.04337 3.32628 3.39336 2.94446C3.74336 2.54673 4.19677 2.34787 4.75359 2.34787C5.34223 2.34787 5.84867 2.49901 6.21458 2.94446C6.47562 3.2055 6.83573 3.68099 6.91585 4.4792C6.95078 4.8271 6.95078 5.12352 6.95078 5.12352V5.36216H9.15904V5.12352V4.52693C9.15904 3.20647 8.58768 2.3956 7.80814 1.58423C7.0445 0.772869 6.02632 0.367188 4.75359 0.367188C3.52859 0.367188 2.53427 0.749006 1.77064 1.51264C1.007 2.26037 0.625183 3.27855 0.625183 4.56719C0.625183 5.37855 0.784274 6.0865 1.10246 6.69105C1.42064 7.2956 1.81041 7.81264 2.27177 8.24219C2.73314 8.67173 3.3695 9.18878 4.18086 9.79332C4.91268 10.3342 5.43768 10.7479 5.75587 11.0342C6.08996 11.3047 6.35246 11.6149 6.54337 11.9649C6.75018 12.3149 6.85359 12.7206 6.85359 13.182C6.85359 13.866 6.66268 14.4229 6.28087 14.8524C5.91496 15.2661 5.44564 15.4729 4.87291 15.4729C4.30018 15.4729 3.83086 15.2581 3.46496 14.8286C3.09905 14.3831 2.91609 13.4187 2.91609 12.6869V12.1857V11.9471H0.67291V12.1857V12.8062C0.67291 14.0789 1.05473 15.4888 1.81836 16.2842Z" fill="white"/>
<path d="M140.005 16.2842C140.785 17.0638 141.803 17.4536 143.06 17.4536C144.317 17.4536 145.335 17.0558 146.114 16.2604C146.894 15.449 147.284 14.3751 147.284 13.0388C147.284 12.307 147.149 11.6786 146.878 11.1536C146.624 10.6126 146.25 10.1195 145.757 9.674C145.279 9.22855 144.563 8.64787 143.609 7.93196C142.607 7.20014 141.93 6.61946 141.58 6.18991C141.23 5.74446 141.055 5.20355 141.055 4.56719C141.055 3.86719 141.23 3.32628 141.58 2.94446C141.93 2.54673 142.384 2.34787 142.941 2.34787C143.529 2.34787 144.036 2.49901 144.402 2.94446C144.663 3.2055 145.023 3.68099 145.103 4.4792C145.138 4.8271 145.138 5.12352 145.138 5.12352V5.36216H147.346V5.12352V4.52693C147.346 3.20647 146.775 2.3956 145.995 1.58423C145.232 0.772869 144.213 0.367188 142.941 0.367188C141.716 0.367188 140.721 0.749006 139.958 1.51264C139.194 2.26037 138.812 3.27855 138.812 4.56719C138.812 5.37855 138.971 6.0865 139.289 6.69105C139.608 7.2956 139.997 7.81264 140.459 8.24219C140.92 8.67173 141.557 9.18878 142.368 9.79332C143.1 10.3342 143.625 10.7479 143.943 11.0342C144.277 11.3047 144.539 11.6149 144.73 11.9649C144.937 12.3149 145.041 12.7206 145.041 13.182C145.041 13.866 144.85 14.4229 144.468 14.8524C144.102 15.2661 143.633 15.4729 143.06 15.4729C142.487 15.4729 142.018 15.2581 141.652 14.8286C141.286 14.3831 141.103 13.4187 141.103 12.6869V12.1857V11.9471H138.86V12.1857V12.8062C138.86 14.0789 139.242 15.4888 140.005 16.2842Z" fill="white"/>
</svg>
