<svg width="151" height="37" viewBox="0 0 151 37" fill="none" xmlns="http://www.w3.org/2000/svg">
<path d="M67.0221 32.5908H66.3403V36.3408H67.0221V32.5908Z" fill="#D87928"/>
<path d="M63.4552 35.8771C63.3138 36.0308 63.1398 36.1469 62.9334 36.2255C62.7286 36.3024 62.504 36.3408 62.2592 36.3408C61.8414 36.3408 61.5168 36.2113 61.2855 35.9522C61.054 35.6915 60.9351 35.3131 60.9283 34.8168V34.1599C60.9283 33.6569 61.0375 33.2701 61.2555 32.9994C61.4752 32.727 61.7948 32.5908 62.2143 32.5908C62.6088 32.5908 62.9059 32.6885 63.1057 32.884C63.3071 33.0796 63.4236 33.3862 63.4552 33.804H62.7411C62.7212 33.5717 62.6729 33.4138 62.5963 33.3302C62.5197 33.245 62.3998 33.2024 62.2367 33.2024C62.0387 33.2024 61.8947 33.2751 61.8048 33.4205C61.7149 33.5659 61.6683 33.7973 61.665 34.1149V34.7766C61.665 35.1092 61.7141 35.3515 61.8123 35.5035C61.9122 35.654 62.0753 35.7291 62.3017 35.7291C62.4465 35.7291 62.5639 35.7 62.6538 35.6414L62.7186 35.5964V34.927H62.2043V34.3705H63.4552V35.8771Z" fill="#D87928"/>
<path d="M59.59 36.3408H58.8559L57.7823 33.8812V36.3408H57.0482V32.5908H57.7823L58.8585 35.053V32.5908H59.59V36.3408Z" fill="#D87928"/>
<path d="M55.9049 36.3408H55.1708V32.5908H55.9049V36.3408Z" fill="#D87928"/>
<path d="M33.2404 34.7942C33.2404 35.2838 33.1247 35.664 32.8933 35.9347C32.6636 36.2054 32.344 36.3408 31.9345 36.3408C31.5267 36.3408 31.2063 36.2071 30.9732 35.9397C30.7402 35.6707 30.622 35.2947 30.6187 34.8117V34.1876C30.6187 33.6862 30.7343 33.2951 30.9658 33.0144C31.1971 32.7319 31.5183 32.5908 31.9296 32.5908C32.3341 32.5908 32.6528 32.7295 32.8858 33.0069C33.1189 33.2826 33.237 33.6703 33.2404 34.17V34.7942ZM32.5038 34.1825C32.5038 33.8534 32.4572 33.6085 32.364 33.4481C32.2708 33.2876 32.1259 33.2074 31.9296 33.2074C31.7348 33.2074 31.5908 33.2851 31.4976 33.4405C31.4043 33.5943 31.356 33.8291 31.3528 34.145V34.7942C31.3528 35.1134 31.4002 35.349 31.495 35.5011C31.5899 35.6515 31.7365 35.7267 31.9345 35.7267C32.1259 35.7267 32.2683 35.6531 32.3615 35.5061C32.4548 35.3573 32.5021 35.1276 32.5038 34.8168V34.1825Z" fill="#D87928"/>
<path d="M29.6796 35.0749C29.6613 35.491 29.5447 35.806 29.3301 36.0199C29.1153 36.2339 28.8124 36.3408 28.4212 36.3408C28.01 36.3408 27.6945 36.2054 27.4748 35.9347C27.2568 35.6623 27.1478 35.2746 27.1478 34.7716V34.1575C27.1478 33.6561 27.2609 33.2701 27.4873 32.9994C27.7137 32.727 28.0283 32.5908 28.4312 32.5908C28.8273 32.5908 29.1278 32.7019 29.3325 32.9241C29.5389 33.1464 29.6563 33.4657 29.6845 33.8817H28.948C28.9413 33.6244 28.9014 33.4473 28.8281 33.3503C28.7565 33.2517 28.6243 33.2024 28.4312 33.2024C28.2347 33.2024 28.0957 33.2718 28.0141 33.4104C27.9326 33.5475 27.8893 33.7739 27.8843 34.0898V34.7792C27.8843 35.1417 27.9242 35.3908 28.0042 35.5261C28.0857 35.6615 28.2247 35.7291 28.4212 35.7291C28.6143 35.7291 28.7474 35.6824 28.8206 35.5888C28.8939 35.4936 28.9355 35.3222 28.9455 35.0749H29.6796Z" fill="#D87928"/>
<path d="M50.7948 35.0749C50.7765 35.491 50.6599 35.806 50.4452 36.0199C50.2305 36.2339 49.9275 36.3408 49.5363 36.3408C49.1252 36.3408 48.8097 36.2054 48.59 35.9347C48.372 35.6623 48.2629 35.2746 48.2629 34.7716V34.1575C48.2629 33.6561 48.3761 33.2701 48.6025 32.9994C48.8289 32.727 49.1435 32.5908 49.5464 32.5908C49.9425 32.5908 50.2429 32.7019 50.4477 32.9241C50.6541 33.1464 50.7715 33.4657 50.7997 33.8817H50.0631C50.0565 33.6244 50.0166 33.4473 49.9433 33.3503C49.8717 33.2517 49.7395 33.2024 49.5464 33.2024C49.3499 33.2024 49.2109 33.2718 49.1293 33.4104C49.0478 33.5475 49.0045 33.7739 48.9995 34.0898V34.7792C48.9995 35.1417 49.0394 35.3908 49.1194 35.5261C49.2009 35.6615 49.3399 35.7291 49.5363 35.7291C49.7294 35.7291 49.8626 35.6824 49.9358 35.5888C50.009 35.4936 50.0507 35.3222 50.0607 35.0749H50.7948Z" fill="#D87928"/>
<path d="M39.7636 33.2218H40.6625V32.5908H38.1431V33.2218H39.027V36.3408H39.7636V33.2218Z" fill="#D87928"/>
<path d="M53.2642 33.2218H54.1631V32.5908H51.6437V33.2218H52.5275V36.3408H53.2642V33.2218Z" fill="#D87928"/>
<path d="M36.3256 36.3408H37.0597V32.5908H36.328V35.053L35.2519 32.5908H34.5178V36.3408H35.2519V33.8812L36.3256 36.3408Z" fill="#D87928"/>
<path d="M20.7231 35.5733H19.7218L19.527 36.3408H18.7505L19.8866 32.5908H20.5582L21.7018 36.3408H20.9178L20.7231 35.5733ZM19.8816 34.9422H20.5608L20.2211 33.6055L19.8816 34.9422Z" fill="#D87928"/>
<path d="M46.7105 35.5733H45.7093L45.5144 36.3408H44.738L45.874 32.5908H46.5456L47.6893 36.3408H46.9052L46.7105 35.5733ZM45.869 34.9422H46.5482L46.2086 33.6055L45.869 34.9422Z" fill="#D87928"/>
<path d="M24.4684 35.7123H23.1799V32.5908H22.4459V36.3408H24.4684V35.7123Z" fill="#D87928"/>
<path d="M16.7778 34.9706H16.4132V36.3408H15.6792V32.5908H16.8502C17.2181 32.5908 17.5019 32.6895 17.7016 32.887C17.9031 33.0827 18.0038 33.3617 18.0038 33.7241C18.0038 34.222 17.8282 34.5706 17.4769 34.7697L18.1136 36.3047V36.3408H17.3247L16.7778 34.9706ZM16.4132 34.3395H16.8303C16.9767 34.3395 17.0866 34.2897 17.1598 34.1902C17.233 34.0889 17.2696 33.9542 17.2696 33.7858C17.2696 33.4098 17.1274 33.2218 16.8428 33.2218H16.4132V34.3395Z" fill="#D87928"/>
<path d="M42.6343 34.9706H42.2697V36.3408H41.5356V32.5908H42.7067C43.0745 32.5908 43.3583 32.6895 43.5581 32.887C43.7596 33.0827 43.8602 33.3617 43.8602 33.7241C43.8602 34.222 43.6846 34.5706 43.3334 34.7697L43.97 36.3047V36.3408H43.1811L42.6343 34.9706ZM42.2697 34.3395H42.6867C42.8332 34.3395 42.943 34.2897 43.0162 34.1902C43.0895 34.0889 43.1261 33.9542 43.1261 33.7858C43.1261 33.4098 42.9838 33.2218 42.6992 33.2218H42.2697V34.3395Z" fill="#D87928"/>
<path d="M3.9646 35.8771C3.82311 36.0308 3.64916 36.1469 3.44275 36.2255C3.23801 36.3024 3.01329 36.3408 2.76859 36.3408C2.35077 36.3408 2.02618 36.2113 1.7948 35.9522C1.56343 35.6915 1.4444 35.3131 1.43774 34.8168V34.1599C1.43774 33.6569 1.54678 33.2701 1.76484 32.9994C1.98457 32.727 2.30417 32.5908 2.72365 32.5908C3.11816 32.5908 3.41529 32.6885 3.61504 32.884C3.81645 33.0796 3.93297 33.3862 3.9646 33.804H3.25049C3.23051 33.5717 3.18224 33.4138 3.10567 33.3302C3.0291 33.245 2.90924 33.2024 2.74612 33.2024C2.54803 33.2024 2.40405 33.2751 2.31415 33.4205C2.22426 33.5659 2.17766 33.7973 2.17433 34.1149V34.7766C2.17433 35.1092 2.22343 35.3515 2.32165 35.5035C2.42153 35.654 2.58465 35.7291 2.81103 35.7291C2.95586 35.7291 3.07321 35.7 3.1631 35.6414L3.22802 35.5964V34.927H2.71366V34.3705H3.9646V35.8771Z" fill="#D87928"/>
<path d="M5.88984 34.7182H7.03342V34.1078H5.88984V33.2218H7.23817V32.5908H5.15576V36.3408H7.24316V35.7123H5.88984V34.7182Z" fill="#D87928"/>
<path d="M13.0566 34.7182H14.2002V34.1078H13.0566V33.2218H14.4049V32.5908H12.3226V36.3408H14.41V35.7123H13.0566V34.7182Z" fill="#D87928"/>
<path d="M82.2727 35.3331C82.2727 35.1843 82.2344 35.0724 82.1578 34.9973C82.0829 34.9204 81.9456 34.841 81.7459 34.759C81.3814 34.6203 81.1191 34.4583 80.9594 34.2728C80.7995 34.0856 80.7197 33.8651 80.7197 33.611C80.7197 33.3035 80.8279 33.057 81.0443 32.8715C81.2623 32.6844 81.5387 32.5908 81.8732 32.5908C82.0962 32.5908 82.2952 32.6384 82.47 32.7337C82.6447 32.8272 82.7787 32.9601 82.872 33.1322C82.9669 33.3043 83.0142 33.4998 83.0142 33.7187H82.2827C82.2827 33.5483 82.2461 33.4188 82.1728 33.3302C82.1013 33.24 81.9972 33.1949 81.8607 33.1949C81.7326 33.1949 81.6326 33.2333 81.5611 33.3102C81.4896 33.3854 81.4538 33.4873 81.4538 33.616C81.4538 33.7163 81.4937 33.8074 81.5735 33.8893C81.6535 33.9695 81.795 34.0531 81.9981 34.1399C82.3526 34.2686 82.6098 34.4265 82.7696 34.6137C82.9311 34.8008 83.0118 35.0389 83.0118 35.3281C83.0118 35.6457 82.9111 35.8938 82.7097 36.0726C82.5082 36.2514 82.2344 36.3408 81.8882 36.3408C81.6535 36.3408 81.4396 36.2923 81.2465 36.1954C81.0534 36.0984 80.9019 35.9598 80.7921 35.7793C80.6839 35.5988 80.6298 35.3858 80.6298 35.1401H81.3663C81.3663 35.3507 81.4071 35.5035 81.4886 35.5988C81.5703 35.6941 81.7034 35.7418 81.8882 35.7418C82.1445 35.7418 82.2727 35.6055 82.2727 35.3331Z" fill="#D87928"/>
<path d="M93.3594 35.1518V32.5908H92.6252V35.1492C92.6236 35.3524 92.5903 35.499 92.5254 35.5888C92.4605 35.6768 92.3406 35.7208 92.1658 35.7208C91.991 35.7208 91.8704 35.676 91.8038 35.5863C91.7372 35.4965 91.7039 35.3465 91.7039 35.1365V32.5908H90.9648V35.134C90.9648 35.5253 91.0672 35.8242 91.272 36.0308C91.4784 36.2375 91.7763 36.3407 92.1658 36.3407C92.5486 36.3407 92.8425 36.2392 93.0472 36.0359C93.252 35.8309 93.356 35.5362 93.3594 35.1518Z" fill="#D87928"/>
<path d="M136.206 35.3028L135.518 32.5908H134.56V36.3408H135.294V35.326L135.227 33.7627L135.953 36.3408H136.452L137.179 33.7627L137.112 35.326V36.3408H137.848V32.5908H136.89L136.206 35.3028Z" fill="#D87928"/>
<path d="M114.243 35.3028L113.556 32.5908H112.597V36.3408H113.332V35.326L113.264 33.7627L113.99 36.3408H114.489L115.216 33.7627L115.149 35.326V36.3408H115.885V32.5908H114.927L114.243 35.3028Z" fill="#D87928"/>
<path d="M109.584 36.3408H108.85L107.776 33.8812V36.3408H107.042V32.5908H107.776L108.853 35.053V32.5908H109.584V36.3408Z" fill="#D87928"/>
<path d="M102.195 36.3408H101.46V32.5908H102.195V36.3408Z" fill="#D87928"/>
<path d="M75.7389 34.7942C75.7389 35.2838 75.6232 35.664 75.3918 35.9347C75.1621 36.2054 74.8425 36.3408 74.433 36.3408C74.0252 36.3408 73.7048 36.2071 73.4717 35.9397C73.2386 35.6707 73.1205 35.2947 73.1171 34.8117V34.1876C73.1171 33.6862 73.2328 33.2951 73.4642 33.0144C73.6956 32.7319 74.0168 32.5908 74.4281 32.5908C74.8325 32.5908 75.1512 32.7295 75.3843 33.0069C75.6174 33.2826 75.7355 33.6703 75.7389 34.17V34.7942ZM75.0023 34.1825C75.0023 33.8534 74.9557 33.6085 74.8625 33.4481C74.7692 33.2876 74.6244 33.2074 74.4281 33.2074C74.2332 33.2074 74.0892 33.2851 73.9961 33.4405C73.9028 33.5943 73.8545 33.8291 73.8512 34.145V34.7942C73.8512 35.1134 73.8987 35.349 73.9935 35.5011C74.0884 35.6515 74.235 35.7267 74.433 35.7267C74.6244 35.7267 74.7668 35.6531 74.86 35.5061C74.9532 35.3573 75.0006 35.1276 75.0023 34.8168V34.1825Z" fill="#D87928"/>
<path d="M105.795 34.7942C105.795 35.2838 105.679 35.664 105.448 35.9347C105.218 36.2054 104.898 36.3408 104.489 36.3408C104.081 36.3408 103.761 36.2071 103.528 35.9397C103.295 35.6707 103.176 35.2947 103.173 34.8117V34.1876C103.173 33.6862 103.289 33.2951 103.52 33.0144C103.751 32.7319 104.073 32.5908 104.484 32.5908C104.888 32.5908 105.207 32.7295 105.44 33.0069C105.673 33.2826 105.791 33.6703 105.795 34.17V34.7942ZM105.058 34.1825C105.058 33.8534 105.012 33.6085 104.918 33.4481C104.825 33.2876 104.68 33.2074 104.484 33.2074C104.289 33.2074 104.145 33.2851 104.052 33.4405C103.959 33.5943 103.91 33.8291 103.907 34.145V34.7942C103.907 35.1134 103.955 35.349 104.049 35.5011C104.144 35.6515 104.291 35.7267 104.489 35.7267C104.68 35.7267 104.823 35.6531 104.916 35.5061C105.009 35.3573 105.056 35.1276 105.058 34.8168V34.1825Z" fill="#D87928"/>
<path d="M72.0627 35.0749C72.0444 35.491 71.9278 35.806 71.7132 36.0199C71.4984 36.2339 71.1955 36.3408 70.8043 36.3408C70.3931 36.3408 70.0776 36.2054 69.858 35.9347C69.6399 35.6623 69.5309 35.2746 69.5309 34.7716V34.1575C69.5309 33.6561 69.644 33.2701 69.8704 32.9994C70.0969 32.727 70.4115 32.5908 70.8143 32.5908C71.2104 32.5908 71.5109 32.7019 71.7156 32.9241C71.922 33.1464 72.0394 33.4657 72.0677 33.8817H71.3311C71.3244 33.6244 71.2846 33.4473 71.2112 33.3503C71.1396 33.2517 71.0074 33.2024 70.8143 33.2024C70.6178 33.2024 70.4788 33.2718 70.3972 33.4104C70.3157 33.5475 70.2725 33.7739 70.2675 34.0898V34.7792C70.2675 35.1417 70.3073 35.3908 70.3873 35.5261C70.4688 35.6615 70.6078 35.7291 70.8043 35.7291C70.9974 35.7291 71.1305 35.6824 71.2038 35.5888C71.277 35.4936 71.3186 35.3222 71.3286 35.0749H72.0627Z" fill="#D87928"/>
<path d="M96.9344 35.0749C96.9161 35.491 96.7995 35.806 96.5848 36.0199C96.37 36.2339 96.0671 36.3408 95.6759 36.3408C95.2648 36.3408 94.9493 36.2054 94.7296 35.9347C94.5115 35.6623 94.4025 35.2746 94.4025 34.7716V34.1575C94.4025 33.6561 94.5156 33.2701 94.7421 32.9994C94.9685 32.727 95.2831 32.5908 95.6859 32.5908C96.0821 32.5908 96.3825 32.7019 96.5873 32.9241C96.7937 33.1464 96.9111 33.4657 96.9393 33.8817H96.2027C96.1961 33.6244 96.1562 33.4473 96.0829 33.3503C96.0113 33.2517 95.879 33.2024 95.6859 33.2024C95.4895 33.2024 95.3505 33.2718 95.2689 33.4104C95.1874 33.5475 95.1441 33.7739 95.1391 34.0898V34.7792C95.1391 35.1417 95.179 35.3908 95.259 35.5261C95.3405 35.6615 95.4795 35.7291 95.6759 35.7291C95.869 35.7291 96.0022 35.6824 96.0754 35.5888C96.1486 35.4936 96.1903 35.3222 96.2003 35.0749H96.9344Z" fill="#D87928"/>
<path d="M85.6712 33.2218H86.5701V32.5908H84.0507V33.2218H84.9346V36.3408H85.6712V33.2218Z" fill="#D87928"/>
<path d="M147.444 33.2218H148.343V32.5908H145.824V33.2218H146.708V36.3408H147.444V33.2218Z" fill="#D87928"/>
<path d="M99.5606 33.2218H100.46V32.5908H97.9401V33.2218H98.824V36.3408H99.5606V33.2218Z" fill="#D87928"/>
<path d="M78.9632 36.3408H79.6973V32.5908H78.9656V35.053L77.8895 32.5908H77.1554V36.3408H77.8895V33.8812L78.9632 36.3408Z" fill="#D87928"/>
<path d="M144.088 36.3408H144.822V32.5908H144.09V35.053L143.014 32.5908H142.28V36.3408H143.014V33.8812L144.088 36.3408Z" fill="#D87928"/>
<path d="M122.342 36.3408H123.076V32.5908H122.344V35.053L121.268 32.5908H120.534V36.3408H121.268V33.8812L122.342 36.3408Z" fill="#D87928"/>
<path d="M118.679 35.5733H117.677L117.483 36.3408H116.706L117.842 32.5908H118.514L119.657 36.3408H118.873L118.679 35.5733ZM117.837 34.9422H118.516L118.177 33.6055L117.837 34.9422Z" fill="#D87928"/>
<path d="M125.974 35.5733H124.973L124.778 36.3408H124.002L125.138 32.5908H125.809L126.953 36.3408H126.169L125.974 35.5733ZM125.133 34.9422H125.812L125.472 33.6055L125.133 34.9422Z" fill="#D87928"/>
<path d="M88.7057 34.9706H88.3411V36.3408H87.6071V32.5908H88.7781C89.146 32.5908 89.4298 32.6895 89.6295 32.887C89.831 33.0827 89.9316 33.3617 89.9316 33.7241C89.9316 34.222 89.756 34.5706 89.4048 34.7697L90.0415 36.3047V36.3408H89.2525L88.7057 34.9706ZM88.3411 34.3395H88.7581C88.9046 34.3395 89.0144 34.2897 89.0877 34.1902C89.1609 34.0889 89.1975 33.9542 89.1975 33.7858C89.1975 33.4098 89.0552 33.2218 88.7706 33.2218H88.3411V34.3395Z" fill="#D87928"/>
<path d="M130.301 35.8771C130.159 36.0308 129.985 36.1469 129.779 36.2255C129.574 36.3024 129.349 36.3408 129.105 36.3408C128.687 36.3408 128.362 36.2113 128.131 35.9522C127.899 35.6915 127.78 35.3131 127.774 34.8168V34.1599C127.774 33.6569 127.883 33.2701 128.101 32.9994C128.321 32.727 128.64 32.5908 129.06 32.5908C129.454 32.5908 129.751 32.6885 129.951 32.884C130.152 33.0796 130.269 33.3862 130.301 33.804H129.586C129.566 33.5717 129.518 33.4138 129.442 33.3302C129.365 33.245 129.245 33.2024 129.082 33.2024C128.884 33.2024 128.74 33.2751 128.65 33.4205C128.56 33.5659 128.514 33.7973 128.51 34.1149V34.7766C128.51 35.1092 128.559 35.3515 128.658 35.5035C128.757 35.654 128.921 35.7291 129.147 35.7291C129.292 35.7291 129.409 35.7 129.499 35.6414L129.564 35.5964V34.927H129.05V34.3705H130.301V35.8771Z" fill="#D87928"/>
<path d="M132.205 34.7182H133.349V34.1078H132.205V33.2218H133.554V32.5908H131.471V36.3408H133.559V35.7123H132.205V34.7182Z" fill="#D87928"/>
<path d="M139.754 34.7182H140.898V34.1078H139.754V33.2218H141.103V32.5908H139.02V36.3408H141.108V35.7123H139.754V34.7182Z" fill="#D87928"/>
<path d="M10.3197 36.3408H11.0538V32.5908H10.3222V35.053L9.24606 32.5908H8.51196V36.3408H9.24606V33.8812L10.3197 36.3408Z" fill="#D87928"/>
<path d="M130.02 20.5332H128.673V28.1612H125.959V11.1157H130.288C131.648 11.1157 132.697 11.5645 133.436 12.462C134.181 13.3518 134.553 14.62 134.553 16.2668C134.553 18.5302 133.904 19.6279 132.605 20.5332L134.959 27.9973V28.1612H132.042L130.02 20.5332ZM128.673 18.452H130.214C130.756 18.452 131.162 18.2256 131.433 17.7729C131.703 17.3125 131.839 16.6997 131.839 15.9349C131.839 14.2257 131.313 13.371 130.26 13.371H128.673V18.452Z" fill="#C4C4C4"/>
<path d="M119.58 20.3356H116.374V26.1111H120.701V28.1612H114.026V11.1157H120.685V13.1962H116.374V18.4238H119.58V20.3356Z" fill="#C4C4C4"/>
<path d="M99.7993 28.1612V11.1157H103.302C104.848 11.1157 106.08 11.7479 106.995 13.0122C107.917 14.2766 108.387 16.0092 108.405 18.2102V20.973C108.405 23.213 107.944 24.973 107.023 26.253C106.107 27.5251 104.842 28.1612 103.229 28.1612H99.7993ZM102.392 13.9015V25.2223H103.192C104.084 25.2223 104.712 24.9218 105.075 24.3208C105.439 23.7121 105.713 22.7486 105.73 21.2658V18.3039C105.73 16.7116 105.476 15.521 105.13 14.8966C104.784 14.2645 104.196 13.9328 103.365 13.9015H102.392Z" fill="#C4C4C4"/>
<path d="M90.6655 26.0736H94.9713V28.1612H88.2122V11.1157H90.6655V26.0736Z" fill="#C4C4C4"/>
<path d="M82.1985 28.1612H79.6752V11.1157H82.1985V28.1612Z" fill="#C4C4C4"/>
<path d="M73.6757 11.1157V22.7566C73.6623 24.5042 73.2411 25.8439 72.4124 26.7754C71.5836 27.6993 70.3944 28.1612 68.8448 28.1612C67.2681 28.1612 66.062 27.6915 65.2266 26.7523C64.3978 25.813 63.9834 24.4542 63.9834 22.6757V11.1157H66.975V23.0883C66.975 24.043 67.1098 24.7243 67.3792 25.1324C67.6487 25.5404 68.1372 25.7444 68.8448 25.7444C69.5522 25.7444 70.0374 25.5442 70.3001 25.1439C70.5628 24.7358 70.6976 24.0699 70.7044 23.146V11.1157H73.6757Z" fill="#C4C4C4"/>
<path d="M49.6953 28.1612V11.1157H53.9019C55.3229 11.1157 56.401 11.5137 57.1364 12.3098C57.878 13.0981 58.2489 14.2571 58.2489 15.7868C58.2489 16.6532 58.0962 17.3985 57.7908 18.0228C57.4855 18.6472 57.0679 19.1038 56.5381 19.3926C57.1489 19.6111 57.6194 20.0521 57.9497 20.7154C58.28 21.3711 58.4452 22.1828 58.4452 23.1506C58.4452 24.8051 58.0806 26.0539 57.3515 26.8968C56.6285 27.7397 55.5784 28.1612 54.2011 28.1612H49.6953ZM52.4437 20.7506V25.3047H54.2011C54.6934 25.3047 55.0674 25.1135 55.3229 24.731C55.5784 24.3486 55.7061 23.8062 55.7061 23.1038C55.7061 21.574 55.2637 20.7897 54.3787 20.7506H52.4437ZM52.4437 18.2453H53.874C54.9521 18.2453 55.4911 17.5467 55.4911 16.1498C55.4911 15.3771 55.3665 14.823 55.1172 14.4873C54.8679 14.1517 54.4629 13.9839 53.9019 13.9839H52.4437V18.2453Z" fill="#C4C4C4"/>
<path d="M33.0198 25.8339H37.234V28.1612H30.6188V11.1157H33.0198V25.8339Z" fill="#D87928"/>
<path d="M24.5575 28.1612H22.0096V20.4485H18.2357V28.1612H15.6792V11.1157H18.2357V18.4093H22.0096V11.1157H24.5575V28.1612Z" fill="#D87928"/>
<path d="M38.5283 0.734924L0.345703 8.38612L38.5283 2.43533L150.346 8.3847L38.5283 0.734924Z" fill="#D87928"/>
<path d="M2.63093 27.0328C3.41047 27.8123 4.42865 28.2021 5.68547 28.2021C6.94229 28.2021 7.96047 27.8044 8.74002 27.0089C9.51956 26.1975 9.90934 25.1237 9.90934 23.7873C9.90934 23.0555 9.77411 22.4271 9.50365 21.9021C9.24911 21.3612 8.87524 20.868 8.38206 20.4225C7.90479 19.9771 7.18888 19.3964 6.23434 18.6805C5.23206 17.9487 4.55593 17.368 4.20593 16.9384C3.85593 16.493 3.68093 15.9521 3.68093 15.3157C3.68093 14.6157 3.85593 14.0748 4.20593 13.693C4.55593 13.2953 5.00934 13.0964 5.56615 13.0964C6.15479 13.0964 6.66123 13.2475 7.02714 13.693C7.28818 13.954 7.64829 14.4295 7.72842 15.2277C7.76334 15.5756 7.76334 15.8721 7.76334 15.8721V16.1107H9.9716V15.8721V15.2755C9.9716 13.955 9.40024 13.1441 8.6207 12.3328C7.85706 11.5214 6.83888 11.1157 5.56615 11.1157C4.34115 11.1157 3.34684 11.4975 2.5832 12.2612C1.81956 13.0089 1.43774 14.0271 1.43774 15.3157C1.43774 16.1271 1.59684 16.835 1.91502 17.4396C2.2332 18.0441 2.62297 18.5612 3.08434 18.9907C3.5457 19.4203 4.18206 19.9373 4.99343 20.5419C5.72524 21.0828 6.25024 21.4964 6.56843 21.7828C6.90252 22.0532 7.16502 22.3634 7.35593 22.7134C7.56274 23.0634 7.66615 23.4691 7.66615 23.9305C7.66615 24.6146 7.47524 25.1714 7.09343 25.6009C6.72752 26.0146 6.2582 26.2214 5.68547 26.2214C5.11274 26.2214 4.64343 26.0066 4.27752 25.5771C3.91161 25.1316 3.72865 24.1672 3.72865 23.4354V22.9343V22.6956H1.48547V22.9343V23.5547C1.48547 24.8274 1.86729 26.2373 2.63093 27.0328Z" fill="#D87928"/>
<path d="M140.818 27.0328C141.597 27.8123 142.616 28.2021 143.872 28.2021C145.129 28.2021 146.147 27.8044 146.927 27.0089C147.707 26.1975 148.096 25.1237 148.096 23.7873C148.096 23.0555 147.961 22.4271 147.691 21.9021C147.436 21.3612 147.062 20.868 146.569 20.4225C146.092 19.9771 145.376 19.3964 144.421 18.6805C143.419 17.9487 142.743 17.368 142.393 16.9384C142.043 16.493 141.868 15.9521 141.868 15.3157C141.868 14.6157 142.043 14.0748 142.393 13.693C142.743 13.2953 143.196 13.0964 143.753 13.0964C144.342 13.0964 144.848 13.2475 145.214 13.693C145.475 13.954 145.835 14.4295 145.915 15.2277C145.95 15.5756 145.95 15.8721 145.95 15.8721V16.1107H148.159V15.8721V15.2755C148.159 13.955 147.587 13.1441 146.808 12.3328C146.044 11.5214 145.026 11.1157 143.753 11.1157C142.528 11.1157 141.534 11.4975 140.77 12.2612C140.007 13.0089 139.625 14.0271 139.625 15.3157C139.625 16.1271 139.784 16.835 140.102 17.4396C140.42 18.0441 140.81 18.5612 141.271 18.9907C141.733 19.4203 142.369 19.9373 143.18 20.5419C143.912 21.0828 144.437 21.4964 144.755 21.7828C145.09 22.0532 145.352 22.3634 145.543 22.7134C145.75 23.0634 145.853 23.4691 145.853 23.9305C145.853 24.6146 145.662 25.1714 145.28 25.6009C144.915 26.0146 144.445 26.2214 143.872 26.2214C143.3 26.2214 142.83 26.0066 142.465 25.5771C142.099 25.1316 141.916 24.1672 141.916 23.4354V22.9343V22.6956H139.672V22.9343V23.5547C139.672 24.8274 140.054 26.2373 140.818 27.0328Z" fill="#C4C4C4"/>
</svg>
